<svg width="174" height="38" viewBox="0 0 174 38" fill="none" xmlns="http://www.w3.org/2000/svg">
<path d="M0 20C0 8.9543 8.95431 0 20 0H155C165.493 0 174 8.50659 174 19V19C174 29.4934 165.493 38 155 38H0V20Z" fill="#FF7256"/>
<path d="M43.2703 17.2508H38.5947C38.5649 17.1751 38.5339 17.0994 38.5006 17.0259L41.8188 13.7077C42.1034 13.4232 42.1034 12.9619 41.8188 12.6762L40.3754 11.2328C40.0909 10.9483 39.6296 10.9483 39.3439 11.2328L36.0257 14.551C35.9351 14.5097 35.8421 14.4719 35.748 14.4363V9.72859C35.748 9.32586 35.4222 9 35.0194 9H32.9783C32.5755 9 32.2497 9.32586 32.2497 9.72859V14.4569C32.1739 14.4868 32.0982 14.5178 32.0248 14.551L28.7066 11.2328C28.422 10.9483 27.9608 10.9483 27.6751 11.2328L26.2317 12.6762C25.9471 12.9608 25.9471 13.422 26.2317 13.7077L29.5499 17.0259C29.5166 17.1005 29.4856 17.1751 29.4558 17.2508H24.7286C24.3259 17.2508 24 17.5767 24 17.9794V20.0206C24 20.4233 24.3259 20.7492 24.7286 20.7492H29.4363C29.4719 20.8433 29.5097 20.9351 29.551 21.0268L26.2328 24.3451C25.9483 24.6296 25.9483 25.0909 26.2328 25.3766L27.6762 26.82C27.9608 27.1045 28.422 27.1045 28.7077 26.82L32.0259 23.5018C32.1005 23.535 32.1751 23.566 32.2508 23.5958V28.2714C32.2508 28.6741 32.5767 29 32.9794 29H35.0206C35.4233 29 35.7492 28.6741 35.7492 28.2714V23.6165C35.8433 23.5809 35.9351 23.5431 36.0268 23.5018L39.3451 26.82C39.6296 27.1045 40.0909 27.1045 40.3766 26.82L41.82 25.3766C42.1045 25.092 42.1045 24.6308 41.82 24.3451L38.5018 21.0268C38.5431 20.9362 38.5809 20.8433 38.6165 20.7492H43.2714C43.6741 20.7492 44 20.4233 44 20.0206V17.9794C44 17.5767 43.6741 17.2508 43.2714 17.2508H43.2703Z" fill="white"/>
<path d="M60.7 15.264H57.592V24H56.416V15.264H53.308V14.228H60.7V15.264ZM68.2173 24H67.5873C67.2887 24 67.046 23.9393 66.8593 23.818C66.6727 23.6873 66.5373 23.51 66.4533 23.286C66.3693 23.062 66.3273 22.8053 66.3273 22.516V22.418L66.7613 22.824H66.2713C66.122 23.2627 65.8607 23.5987 65.4873 23.832C65.1233 24.056 64.6893 24.168 64.1853 24.168C63.42 24.168 62.8227 23.972 62.3933 23.58C61.9733 23.188 61.7633 22.656 61.7633 21.984C61.7633 21.5267 61.8753 21.144 62.0993 20.836C62.3233 20.5187 62.6593 20.2807 63.1073 20.122C63.5647 19.954 64.1433 19.87 64.8433 19.87H66.2713V19.156C66.2713 18.6427 66.1313 18.2507 65.8513 17.98C65.5713 17.7093 65.142 17.574 64.5633 17.574C64.134 17.574 63.77 17.672 63.4713 17.868C63.1727 18.064 62.9253 18.3253 62.7293 18.652L62.0573 18.022C62.2533 17.6393 62.566 17.308 62.9953 17.028C63.4247 16.748 63.966 16.608 64.6193 16.608C65.4873 16.608 66.164 16.8227 66.6493 17.252C67.144 17.6813 67.3913 18.2787 67.3913 19.044V23.02H68.2173V24ZM66.2713 20.71H64.7873C64.1527 20.71 63.686 20.8033 63.3873 20.99C63.0887 21.1767 62.9393 21.4473 62.9393 21.802V22.096C62.9393 22.4507 63.07 22.726 63.3313 22.922C63.5927 23.118 63.938 23.216 64.3673 23.216C64.7407 23.216 65.0673 23.16 65.3473 23.048C65.6367 22.9267 65.8607 22.768 66.0193 22.572C66.1873 22.3667 66.2713 22.1427 66.2713 21.9V20.71ZM73.1059 24.168C72.4432 24.168 71.8832 24.042 71.4259 23.79C70.9685 23.5287 70.5765 23.1833 70.2499 22.754L71.0479 22.11C71.3279 22.4553 71.6405 22.726 71.9859 22.922C72.3312 23.118 72.7325 23.216 73.1899 23.216C73.6659 23.216 74.0345 23.1133 74.2959 22.908C74.5665 22.7027 74.7019 22.4133 74.7019 22.04C74.7019 21.76 74.6085 21.5173 74.4219 21.312C74.2445 21.1067 73.9179 20.9713 73.4419 20.906L72.8679 20.822C72.4292 20.7567 72.0325 20.6493 71.6779 20.5C71.3232 20.3413 71.0432 20.122 70.8379 19.842C70.6419 19.5527 70.5439 19.184 70.5439 18.736C70.5439 18.0173 70.7865 17.4853 71.2719 17.14C71.7665 16.7853 72.3825 16.608 73.1199 16.608C73.5119 16.608 73.8572 16.6547 74.1559 16.748C74.4639 16.8413 74.7392 16.9767 74.9819 17.154C75.2245 17.322 75.4439 17.5273 75.6399 17.77L74.8979 18.442C74.7392 18.218 74.5059 18.0173 74.1979 17.84C73.8899 17.6533 73.5025 17.56 73.0359 17.56C72.5785 17.56 72.2285 17.6627 71.9859 17.868C71.7432 18.064 71.6219 18.3347 71.6219 18.68C71.6219 19.0253 71.7385 19.282 71.9719 19.45C72.2145 19.6087 72.5599 19.7253 73.0079 19.8L73.5679 19.884C74.3705 20.0053 74.9399 20.2387 75.2759 20.584C75.6119 20.92 75.7799 21.3633 75.7799 21.914C75.7799 22.3807 75.6725 22.782 75.4579 23.118C75.2432 23.454 74.9352 23.7153 74.5339 23.902C74.1325 24.0793 73.6565 24.168 73.1059 24.168ZM78.8781 24V13.64H79.9981V18.918V20.206H80.0541L81.1601 18.974L83.2041 16.776H84.5621L81.8881 19.632L84.8281 24H83.4701L81.0761 20.318L79.9981 21.424V24H78.8781ZM98.3195 15.264H95.2115V24H94.0355V15.264H90.9275V14.228H98.3195V15.264ZM101.432 24H100.312V16.776H101.432V18.106H101.502C101.586 17.8727 101.717 17.658 101.894 17.462C102.072 17.2567 102.3 17.0933 102.58 16.972C102.86 16.8413 103.196 16.776 103.588 16.776H104.022V17.896H103.364C102.963 17.896 102.618 17.952 102.328 18.064C102.039 18.1667 101.815 18.3067 101.656 18.484C101.507 18.6613 101.432 18.8667 101.432 19.1V24ZM112.398 24H111.768C111.47 24 111.227 23.9393 111.04 23.818C110.854 23.6873 110.718 23.51 110.634 23.286C110.55 23.062 110.508 22.8053 110.508 22.516V22.418L110.942 22.824H110.452C110.303 23.2627 110.042 23.5987 109.668 23.832C109.304 24.056 108.87 24.168 108.366 24.168C107.601 24.168 107.004 23.972 106.574 23.58C106.154 23.188 105.944 22.656 105.944 21.984C105.944 21.5267 106.056 21.144 106.28 20.836C106.504 20.5187 106.84 20.2807 107.288 20.122C107.746 19.954 108.324 19.87 109.024 19.87H110.452V19.156C110.452 18.6427 110.312 18.2507 110.032 17.98C109.752 17.7093 109.323 17.574 108.744 17.574C108.315 17.574 107.951 17.672 107.652 17.868C107.354 18.064 107.106 18.3253 106.91 18.652L106.238 18.022C106.434 17.6393 106.747 17.308 107.176 17.028C107.606 16.748 108.147 16.608 108.8 16.608C109.668 16.608 110.345 16.8227 110.83 17.252C111.325 17.6813 111.572 18.2787 111.572 19.044V23.02H112.398V24ZM110.452 20.71H108.968C108.334 20.71 107.867 20.8033 107.568 20.99C107.27 21.1767 107.12 21.4473 107.12 21.802V22.096C107.12 22.4507 107.251 22.726 107.512 22.922C107.774 23.118 108.119 23.216 108.548 23.216C108.922 23.216 109.248 23.16 109.528 23.048C109.818 22.9267 110.042 22.768 110.2 22.572C110.368 22.3667 110.452 22.1427 110.452 21.9V20.71ZM115.677 15.082C115.443 15.082 115.271 15.026 115.159 14.914C115.047 14.7927 114.991 14.6387 114.991 14.452V14.27C114.991 14.0833 115.047 13.934 115.159 13.822C115.271 13.7007 115.443 13.64 115.677 13.64C115.919 13.64 116.092 13.7007 116.195 13.822C116.307 13.934 116.363 14.0833 116.363 14.27V14.452C116.363 14.6387 116.307 14.7927 116.195 14.914C116.092 15.026 115.919 15.082 115.677 15.082ZM115.117 24V16.776H116.237V24H115.117ZM120.857 24H119.737V16.776H120.857V17.952H120.913C121.09 17.5413 121.337 17.2147 121.655 16.972C121.981 16.7293 122.415 16.608 122.957 16.608C123.703 16.608 124.291 16.8507 124.721 17.336C125.159 17.812 125.379 18.4887 125.379 19.366V24H124.259V19.562C124.259 18.918 124.119 18.4327 123.839 18.106C123.568 17.7793 123.162 17.616 122.621 17.616C122.322 17.616 122.037 17.6673 121.767 17.77C121.496 17.8633 121.277 18.0127 121.109 18.218C120.941 18.4233 120.857 18.68 120.857 18.988V24ZM131.53 24.168C130.876 24.168 130.307 24.014 129.822 23.706C129.336 23.3887 128.958 22.95 128.688 22.39C128.417 21.8207 128.282 21.1533 128.282 20.388C128.282 19.6227 128.417 18.96 128.688 18.4C128.958 17.8307 129.336 17.392 129.822 17.084C130.307 16.7667 130.876 16.608 131.53 16.608C132.174 16.608 132.729 16.762 133.196 17.07C133.662 17.3687 134.022 17.784 134.274 18.316C134.526 18.848 134.652 19.4547 134.652 20.136V20.668H129.458V21.004C129.458 21.6293 129.644 22.152 130.018 22.572C130.4 22.9827 130.928 23.188 131.6 23.188C132.057 23.188 132.454 23.0807 132.79 22.866C133.135 22.6513 133.401 22.3433 133.588 21.942L134.386 22.516C134.152 23.0013 133.788 23.398 133.294 23.706C132.799 24.014 132.211 24.168 131.53 24.168ZM131.53 17.546C131.128 17.546 130.769 17.6393 130.452 17.826C130.144 18.0127 129.901 18.274 129.724 18.61C129.546 18.9367 129.458 19.31 129.458 19.73V19.828H133.448V19.674C133.448 19.2447 133.368 18.8713 133.21 18.554C133.051 18.2367 132.827 17.9893 132.538 17.812C132.248 17.6347 131.912 17.546 131.53 17.546ZM138.737 24H137.617V16.776H138.737V18.106H138.807C138.891 17.8727 139.022 17.658 139.199 17.462C139.377 17.2567 139.605 17.0933 139.885 16.972C140.165 16.8413 140.501 16.776 140.893 16.776H141.327V17.896H140.669C140.268 17.896 139.923 17.952 139.633 18.064C139.344 18.1667 139.12 18.3067 138.961 18.484C138.812 18.6613 138.737 18.8667 138.737 19.1V24ZM146.048 24.168C145.385 24.168 144.825 24.042 144.368 23.79C143.911 23.5287 143.519 23.1833 143.192 22.754L143.99 22.11C144.27 22.4553 144.583 22.726 144.928 22.922C145.273 23.118 145.675 23.216 146.132 23.216C146.608 23.216 146.977 23.1133 147.238 22.908C147.509 22.7027 147.644 22.4133 147.644 22.04C147.644 21.76 147.551 21.5173 147.364 21.312C147.187 21.1067 146.86 20.9713 146.384 20.906L145.81 20.822C145.371 20.7567 144.975 20.6493 144.62 20.5C144.265 20.3413 143.985 20.122 143.78 19.842C143.584 19.5527 143.486 19.184 143.486 18.736C143.486 18.0173 143.729 17.4853 144.214 17.14C144.709 16.7853 145.325 16.608 146.062 16.608C146.454 16.608 146.799 16.6547 147.098 16.748C147.406 16.8413 147.681 16.9767 147.924 17.154C148.167 17.322 148.386 17.5273 148.582 17.77L147.84 18.442C147.681 18.218 147.448 18.0173 147.14 17.84C146.832 17.6533 146.445 17.56 145.978 17.56C145.521 17.56 145.171 17.6627 144.928 17.868C144.685 18.064 144.564 18.3347 144.564 18.68C144.564 19.0253 144.681 19.282 144.914 19.45C145.157 19.6087 145.502 19.7253 145.95 19.8L146.51 19.884C147.313 20.0053 147.882 20.2387 148.218 20.584C148.554 20.92 148.722 21.3633 148.722 21.914C148.722 22.3807 148.615 22.782 148.4 23.118C148.185 23.454 147.877 23.7153 147.476 23.902C147.075 24.0793 146.599 24.168 146.048 24.168Z" fill="black"/>
</svg>
