<svg width="544" height="480" viewBox="0 0 544 480" fill="none" xmlns="http://www.w3.org/2000/svg">
<circle cx="2" cy="2" r="2" fill="#FF7256"/>
<circle cx="38" cy="2" r="2" fill="#FF7256"/>
<circle cx="74" cy="2" r="2" fill="#FF7256"/>
<circle cx="110" cy="2" r="2" fill="#FF7256"/>
<circle cx="146" cy="2" r="2" fill="#FF7256"/>
<circle cx="182" cy="2" r="2" fill="#FF7256"/>
<circle cx="218" cy="2" r="2" fill="#FF7256"/>
<circle cx="254" cy="2" r="2" fill="#FF7256"/>
<circle cx="290" cy="2" r="2" fill="#FF7256"/>
<circle cx="326" cy="2" r="2" fill="#FF7256"/>
<circle cx="362" cy="2" r="2" fill="#FF7256"/>
<circle cx="398" cy="2" r="2" fill="#FF7256"/>
<circle cx="434" cy="2" r="2" fill="#FF7256"/>
<circle cx="470" cy="2" r="2" fill="#FF7256"/>
<circle cx="506" cy="2" r="2" fill="#FF7256"/>
<circle cx="542" cy="2" r="2" fill="#FF7256"/>
<circle cx="2" cy="36" r="2" fill="#FF7256"/>
<circle cx="38" cy="36" r="2" fill="#FF7256"/>
<circle cx="74" cy="36" r="2" fill="#FF7256"/>
<circle cx="110" cy="36" r="2" fill="#FF7256"/>
<circle cx="146" cy="36" r="2" fill="#FF7256"/>
<circle cx="182" cy="36" r="2" fill="#FF7256"/>
<circle cx="218" cy="36" r="2" fill="#FF7256"/>
<circle cx="254" cy="36" r="2" fill="#FF7256"/>
<circle cx="290" cy="36" r="2" fill="#FF7256"/>
<circle cx="326" cy="36" r="2" fill="#FF7256"/>
<circle cx="362" cy="36" r="2" fill="#FF7256"/>
<circle cx="398" cy="36" r="2" fill="#FF7256"/>
<circle cx="434" cy="36" r="2" fill="#FF7256"/>
<circle cx="470" cy="36" r="2" fill="#FF7256"/>
<circle cx="506" cy="36" r="2" fill="#FF7256"/>
<circle cx="542" cy="36" r="2" fill="#FF7256"/>
<circle cx="2" cy="70" r="2" fill="#FF7256"/>
<circle cx="38" cy="70" r="2" fill="#FF7256"/>
<circle cx="74" cy="70" r="2" fill="#FF7256"/>
<circle cx="110" cy="70" r="2" fill="#FF7256"/>
<circle cx="146" cy="70" r="2" fill="#FF7256"/>
<circle cx="182" cy="70" r="2" fill="#FF7256"/>
<circle cx="218" cy="70" r="2" fill="#FF7256"/>
<circle cx="254" cy="70" r="2" fill="#FF7256"/>
<circle cx="290" cy="70" r="2" fill="#FF7256"/>
<circle cx="326" cy="70" r="2" fill="#FF7256"/>
<circle cx="362" cy="70" r="2" fill="#FF7256"/>
<circle cx="398" cy="70" r="2" fill="#FF7256"/>
<circle cx="434" cy="70" r="2" fill="#FF7256"/>
<circle cx="470" cy="70" r="2" fill="#FF7256"/>
<circle cx="506" cy="70" r="2" fill="#FF7256"/>
<circle cx="542" cy="70" r="2" fill="#FF7256"/>
<circle cx="2" cy="104" r="2" fill="#FF7256"/>
<circle cx="38" cy="104" r="2" fill="#FF7256"/>
<circle cx="74" cy="104" r="2" fill="#FF7256"/>
<circle cx="110" cy="104" r="2" fill="#FF7256"/>
<circle cx="146" cy="104" r="2" fill="#FF7256"/>
<circle cx="182" cy="104" r="2" fill="#FF7256"/>
<circle cx="218" cy="104" r="2" fill="#FF7256"/>
<circle cx="254" cy="104" r="2" fill="#FF7256"/>
<circle cx="290" cy="104" r="2" fill="#FF7256"/>
<circle cx="326" cy="104" r="2" fill="#FF7256"/>
<circle cx="362" cy="104" r="2" fill="#FF7256"/>
<circle cx="398" cy="104" r="2" fill="#FF7256"/>
<circle cx="434" cy="104" r="2" fill="#FF7256"/>
<circle cx="470" cy="104" r="2" fill="#FF7256"/>
<circle cx="506" cy="104" r="2" fill="#FF7256"/>
<circle cx="542" cy="104" r="2" fill="#FF7256"/>
<circle cx="2" cy="138" r="2" fill="#FF7256"/>
<circle cx="38" cy="138" r="2" fill="#FF7256"/>
<circle cx="74" cy="138" r="2" fill="#FF7256"/>
<circle cx="110" cy="138" r="2" fill="#FF7256"/>
<circle cx="146" cy="138" r="2" fill="#FF7256"/>
<circle cx="182" cy="138" r="2" fill="#FF7256"/>
<circle cx="218" cy="138" r="2" fill="#FF7256"/>
<circle cx="254" cy="138" r="2" fill="#FF7256"/>
<circle cx="290" cy="138" r="2" fill="#FF7256"/>
<circle cx="326" cy="138" r="2" fill="#FF7256"/>
<circle cx="362" cy="138" r="2" fill="#FF7256"/>
<circle cx="398" cy="138" r="2" fill="#FF7256"/>
<circle cx="434" cy="138" r="2" fill="#FF7256"/>
<circle cx="470" cy="138" r="2" fill="#FF7256"/>
<circle cx="506" cy="138" r="2" fill="#FF7256"/>
<circle cx="542" cy="138" r="2" fill="#FF7256"/>
<circle cx="2" cy="172" r="2" fill="#FF7256"/>
<circle cx="38" cy="172" r="2" fill="#FF7256"/>
<circle cx="74" cy="172" r="2" fill="#FF7256"/>
<circle cx="110" cy="172" r="2" fill="#FF7256"/>
<circle cx="146" cy="172" r="2" fill="#FF7256"/>
<circle cx="182" cy="172" r="2" fill="#FF7256"/>
<circle cx="218" cy="172" r="2" fill="#FF7256"/>
<circle cx="254" cy="172" r="2" fill="#FF7256"/>
<circle cx="290" cy="172" r="2" fill="#FF7256"/>
<circle cx="326" cy="172" r="2" fill="#FF7256"/>
<circle cx="362" cy="172" r="2" fill="#FF7256"/>
<circle cx="398" cy="172" r="2" fill="#FF7256"/>
<circle cx="434" cy="172" r="2" fill="#FF7256"/>
<circle cx="470" cy="172" r="2" fill="#FF7256"/>
<circle cx="506" cy="172" r="2" fill="#FF7256"/>
<circle cx="542" cy="172" r="2" fill="#FF7256"/>
<circle cx="2" cy="206" r="2" fill="#FF7256"/>
<circle cx="38" cy="206" r="2" fill="#FF7256"/>
<circle cx="74" cy="206" r="2" fill="#FF7256"/>
<circle cx="110" cy="206" r="2" fill="#FF7256"/>
<circle cx="146" cy="206" r="2" fill="#FF7256"/>
<circle cx="182" cy="206" r="2" fill="#FF7256"/>
<circle cx="218" cy="206" r="2" fill="#FF7256"/>
<circle cx="254" cy="206" r="2" fill="#FF7256"/>
<circle cx="290" cy="206" r="2" fill="#FF7256"/>
<circle cx="326" cy="206" r="2" fill="#FF7256"/>
<circle cx="362" cy="206" r="2" fill="#FF7256"/>
<circle cx="398" cy="206" r="2" fill="#FF7256"/>
<circle cx="434" cy="206" r="2" fill="#FF7256"/>
<circle cx="470" cy="206" r="2" fill="#FF7256"/>
<circle cx="506" cy="206" r="2" fill="#FF7256"/>
<circle cx="542" cy="206" r="2" fill="#FF7256"/>
<circle cx="2" cy="240" r="2" fill="#FF7256"/>
<circle cx="38" cy="240" r="2" fill="#FF7256"/>
<circle cx="74" cy="240" r="2" fill="#FF7256"/>
<circle cx="110" cy="240" r="2" fill="#FF7256"/>
<circle cx="146" cy="240" r="2" fill="#FF7256"/>
<circle cx="182" cy="240" r="2" fill="#FF7256"/>
<circle cx="218" cy="240" r="2" fill="#FF7256"/>
<circle cx="254" cy="240" r="2" fill="#FF7256"/>
<circle cx="290" cy="240" r="2" fill="#FF7256"/>
<circle cx="326" cy="240" r="2" fill="#FF7256"/>
<circle cx="362" cy="240" r="2" fill="#FF7256"/>
<circle cx="398" cy="240" r="2" fill="#FF7256"/>
<circle cx="434" cy="240" r="2" fill="#FF7256"/>
<circle cx="470" cy="240" r="2" fill="#FF7256"/>
<circle cx="506" cy="240" r="2" fill="#FF7256"/>
<circle cx="542" cy="240" r="2" fill="#FF7256"/>
<circle cx="2" cy="274" r="2" fill="#FF7256"/>
<circle cx="38" cy="274" r="2" fill="#FF7256"/>
<circle cx="74" cy="274" r="2" fill="#FF7256"/>
<circle cx="110" cy="274" r="2" fill="#FF7256"/>
<circle cx="146" cy="274" r="2" fill="#FF7256"/>
<circle cx="182" cy="274" r="2" fill="#FF7256"/>
<circle cx="218" cy="274" r="2" fill="#FF7256"/>
<circle cx="254" cy="274" r="2" fill="#FF7256"/>
<circle cx="290" cy="274" r="2" fill="#FF7256"/>
<circle cx="326" cy="274" r="2" fill="#FF7256"/>
<circle cx="362" cy="274" r="2" fill="#FF7256"/>
<circle cx="398" cy="274" r="2" fill="#FF7256"/>
<circle cx="434" cy="274" r="2" fill="#FF7256"/>
<circle cx="470" cy="274" r="2" fill="#FF7256"/>
<circle cx="506" cy="274" r="2" fill="#FF7256"/>
<circle cx="542" cy="274" r="2" fill="#FF7256"/>
<circle cx="2" cy="308" r="2" fill="#FF7256"/>
<circle cx="38" cy="308" r="2" fill="#FF7256"/>
<circle cx="74" cy="308" r="2" fill="#FF7256"/>
<circle cx="110" cy="308" r="2" fill="#FF7256"/>
<circle cx="146" cy="308" r="2" fill="#FF7256"/>
<circle cx="182" cy="308" r="2" fill="#FF7256"/>
<circle cx="218" cy="308" r="2" fill="#FF7256"/>
<circle cx="254" cy="308" r="2" fill="#FF7256"/>
<circle cx="290" cy="308" r="2" fill="#FF7256"/>
<circle cx="326" cy="308" r="2" fill="#FF7256"/>
<circle cx="362" cy="308" r="2" fill="#FF7256"/>
<circle cx="398" cy="308" r="2" fill="#FF7256"/>
<circle cx="434" cy="308" r="2" fill="#FF7256"/>
<circle cx="470" cy="308" r="2" fill="#FF7256"/>
<circle cx="506" cy="308" r="2" fill="#FF7256"/>
<circle cx="542" cy="308" r="2" fill="#FF7256"/>
<circle cx="2" cy="342" r="2" fill="#FF7256"/>
<circle cx="38" cy="342" r="2" fill="#FF7256"/>
<circle cx="74" cy="342" r="2" fill="#FF7256"/>
<circle cx="110" cy="342" r="2" fill="#FF7256"/>
<circle cx="146" cy="342" r="2" fill="#FF7256"/>
<circle cx="182" cy="342" r="2" fill="#FF7256"/>
<circle cx="218" cy="342" r="2" fill="#FF7256"/>
<circle cx="254" cy="342" r="2" fill="#FF7256"/>
<circle cx="290" cy="342" r="2" fill="#FF7256"/>
<circle cx="326" cy="342" r="2" fill="#FF7256"/>
<circle cx="362" cy="342" r="2" fill="#FF7256"/>
<circle cx="398" cy="342" r="2" fill="#FF7256"/>
<circle cx="434" cy="342" r="2" fill="#FF7256"/>
<circle cx="470" cy="342" r="2" fill="#FF7256"/>
<circle cx="506" cy="342" r="2" fill="#FF7256"/>
<circle cx="542" cy="342" r="2" fill="#FF7256"/>
<circle cx="2" cy="376" r="2" fill="#FF7256"/>
<circle cx="38" cy="376" r="2" fill="#FF7256"/>
<circle cx="74" cy="376" r="2" fill="#FF7256"/>
<circle cx="110" cy="376" r="2" fill="#FF7256"/>
<circle cx="146" cy="376" r="2" fill="#FF7256"/>
<circle cx="182" cy="376" r="2" fill="#FF7256"/>
<circle cx="218" cy="376" r="2" fill="#FF7256"/>
<circle cx="254" cy="376" r="2" fill="#FF7256"/>
<circle cx="290" cy="376" r="2" fill="#FF7256"/>
<circle cx="326" cy="376" r="2" fill="#FF7256"/>
<circle cx="362" cy="376" r="2" fill="#FF7256"/>
<circle cx="398" cy="376" r="2" fill="#FF7256"/>
<circle cx="434" cy="376" r="2" fill="#FF7256"/>
<circle cx="470" cy="376" r="2" fill="#FF7256"/>
<circle cx="506" cy="376" r="2" fill="#FF7256"/>
<circle cx="542" cy="376" r="2" fill="#FF7256"/>
<circle cx="2" cy="410" r="2" fill="#FF7256"/>
<circle cx="38" cy="410" r="2" fill="#FF7256"/>
<circle cx="74" cy="410" r="2" fill="#FF7256"/>
<circle cx="110" cy="410" r="2" fill="#FF7256"/>
<circle cx="146" cy="410" r="2" fill="#FF7256"/>
<circle cx="182" cy="410" r="2" fill="#FF7256"/>
<circle cx="218" cy="410" r="2" fill="#FF7256"/>
<circle cx="254" cy="410" r="2" fill="#FF7256"/>
<circle cx="290" cy="410" r="2" fill="#FF7256"/>
<circle cx="326" cy="410" r="2" fill="#FF7256"/>
<circle cx="362" cy="410" r="2" fill="#FF7256"/>
<circle cx="398" cy="410" r="2" fill="#FF7256"/>
<circle cx="434" cy="410" r="2" fill="#FF7256"/>
<circle cx="470" cy="410" r="2" fill="#FF7256"/>
<circle cx="506" cy="410" r="2" fill="#FF7256"/>
<circle cx="542" cy="410" r="2" fill="#FF7256"/>
<circle cx="2" cy="444" r="2" fill="#FF7256"/>
<circle cx="38" cy="444" r="2" fill="#FF7256"/>
<circle cx="74" cy="444" r="2" fill="#FF7256"/>
<circle cx="110" cy="444" r="2" fill="#FF7256"/>
<circle cx="146" cy="444" r="2" fill="#FF7256"/>
<circle cx="182" cy="444" r="2" fill="#FF7256"/>
<circle cx="218" cy="444" r="2" fill="#FF7256"/>
<circle cx="254" cy="444" r="2" fill="#FF7256"/>
<circle cx="290" cy="444" r="2" fill="#FF7256"/>
<circle cx="326" cy="444" r="2" fill="#FF7256"/>
<circle cx="362" cy="444" r="2" fill="#FF7256"/>
<circle cx="398" cy="444" r="2" fill="#FF7256"/>
<circle cx="434" cy="444" r="2" fill="#FF7256"/>
<circle cx="470" cy="444" r="2" fill="#FF7256"/>
<circle cx="506" cy="444" r="2" fill="#FF7256"/>
<circle cx="542" cy="444" r="2" fill="#FF7256"/>
<circle cx="2" cy="478" r="2" fill="#FF7256"/>
<circle cx="38" cy="478" r="2" fill="#FF7256"/>
<circle cx="74" cy="478" r="2" fill="#FF7256"/>
<circle cx="110" cy="478" r="2" fill="#FF7256"/>
<circle cx="146" cy="478" r="2" fill="#FF7256"/>
<circle cx="182" cy="478" r="2" fill="#FF7256"/>
<circle cx="218" cy="478" r="2" fill="#FF7256"/>
<circle cx="254" cy="478" r="2" fill="#FF7256"/>
<circle cx="290" cy="478" r="2" fill="#FF7256"/>
<circle cx="326" cy="478" r="2" fill="#FF7256"/>
<circle cx="362" cy="478" r="2" fill="#FF7256"/>
<circle cx="398" cy="478" r="2" fill="#FF7256"/>
<circle cx="434" cy="478" r="2" fill="#FF7256"/>
<circle cx="470" cy="478" r="2" fill="#FF7256"/>
<circle cx="506" cy="478" r="2" fill="#FF7256"/>
<circle cx="542" cy="478" r="2" fill="#FF7256"/>
</svg>
