<svg width="1440" height="808" viewBox="0 0 1440 808" fill="none" xmlns="http://www.w3.org/2000/svg">
<path fill-rule="evenodd" clip-rule="evenodd" d="M1489 9.72831V7.81822H1456.96V-23.9711H1455.04V7.81822H1423.41V-23.9711H1422.73V7.81822H1390.41V-23.9711H1389.73V7.81822H1357.41V-23.9711H1356.73V7.81822H1324.41V-23.9711H1323.72V7.81822H1292.1V-23.9711H1290.18V7.81822H1258.55V-23.9711H1257.86V7.81822H1225.55V-23.9711H1224.86V7.81822H1192.55V-23.9711H1191.86V7.81822H1159.55V-23.9711H1158.86V7.81822H1127.24V-23.9711H1125.31V7.81822H1093.69V-23.9711H1093V7.81822H1060.69V-23.9711H1060V7.81822H1027.69V-23.9711H1027V7.81822H994.688V-23.9711H994V7.81822H962.375V-23.9711H960.45V7.81822H928.825V-23.9711H928.137V7.81822H895.825V-23.9711H895.137V7.81822H862.825V-23.9711H862.137V7.81822H829.825V-23.9711H829.137V7.81822H797.512V-23.9711H795.588V7.81822H763.963V-23.9711H763.275V7.81822H730.963V-23.9711H730.275V7.81822H697.963V-23.9711H697.275V7.81822H664.963V-23.9711H664.275V7.81822H632.65V-23.9711H630.725V7.81822H599.1V-23.9711H598.412V7.81822H566.1V-23.9711H565.412V7.81822H533.1V-23.9711H532.412V7.81822H500.1V-23.9711H499.412V7.81822H467.787V-23.9711H465.862V7.81822H434.237V-23.9711H433.55V7.81822H401.237V-23.9711H400.55V7.81822H368.237V-23.9711H367.55V7.81822H335.237V-23.9711H334.55V7.81822H302.925V-23.9711H301V7.81822H269.375V-23.9711H268.688V7.81822H236.375V-23.9711H235.688V7.81822H203.375V-23.9711H202.688V7.81822H170.375V-23.9711H169.688V7.81822H138.062V-23.9711H136.138V7.81822H104.512V-23.9711H103.825V7.81822H71.5125V-23.9711H70.825V7.81822H38.5125V-23.9711H37.825V7.81822H5.5125V-23.9711H4.825V7.81822H-26.8V-23.9711H-28.725V7.81822H-62V9.72831H-29.9625V41.1083H-62V41.7905H-29.9625V73.8526H-62V74.5348H-29.9625V106.597H-62V107.279H-29.9625V139.341H-62V140.023H-29.9625V171.403H-62V173.314H-29.9625V204.694H-62V205.376H-29.9625V237.438H-62V238.12H-29.9625V270.182H-62V270.864H-29.9625V302.927H-62V303.609H-29.9625V334.989H-62V336.899H-29.9625V368.279H-62V368.961H-29.9625V401.023H-62V401.705H-29.9625V433.767H-62V434.45H-29.9625V466.512H-62V467.194H-29.9625V498.574H-62V500.484H-29.9625V531.864H-62V532.546H-29.9625V564.608H-62V565.29H-29.9625V597.353H-62V598.035H-29.9625V630.097H-62V630.779H-29.9625V662.159H-62V664.069H-29.9625V695.449H-62V696.131H-29.9625V728.193H-62V728.876H-29.9625V760.938H-62V761.62H-29.9625V793.682H-62V794.364H-29.9625V825.744H-62V827.654H-29.9625V859.034H-62V859.717H-29.9625V891.779H-62V892.461H-29.9625V924.523H-62V925.205H-29.9625V957.267H-62V957.95H-29.9625V989.33H-62V991.24H-29.9625V1023.03H-28.0375V991.24H3.5875V1023.03H4.275V991.24H36.5875V1023.03H37.275V991.24H69.5875V1023.03H70.275V991.24H102.587V1023.03H103.275V991.24H134.9V1023.03H136.825V991.24H168.45V1023.03H169.138V991.24H201.45V1023.03H202.138V991.24H234.45V1023.03H235.138V991.24H267.45V1023.03H268.138V991.24H299.763V1023.03H301.688V991.24H333.312V1023.03H334V991.24H366.312V1023.03H367V991.24H399.312V1023.03H400V991.24H432.312V1023.03H433V991.24H464.625V1023.03H466.55V991.24H498.175V1023.03H498.862V991.24H531.175V1023.03H531.862V991.24H564.175V1023.03H564.862V991.24H597.175V1023.03H597.862V991.24H629.487V1023.03H631.412V991.24H663.037V1023.03H663.725V991.24H696.037V1023.03H696.725V991.24H729.037V1023.03H729.725V991.24H762.037V1023.03H762.725V991.24H794.35V1023.03H796.275V991.24H827.9V1023.03H828.588V991.24H860.9V1023.03H861.588V991.24H893.9V1023.03H894.588V991.24H926.9V1023.03H927.588V991.24H959.213V1023.03H961.137V991.24H992.762V1023.03H993.45V991.24H1025.76V1023.03H1026.45V991.24H1058.76V1023.03H1059.45V991.24H1091.76V1023.03H1092.45V991.24H1124.07V1023.03H1126V991.24H1157.62V1023.03H1158.31V991.24H1190.62V1023.03H1191.31V991.24H1223.62V1023.03H1224.31V991.24H1256.62V1023.03H1257.31V991.24H1288.94V1023.03H1290.86V991.24H1322.49V1023.03H1323.18V991.24H1355.49V1023.03H1356.18V991.24H1388.49V1023.03H1389.18V991.24H1421.49V1023.03H1422.18V991.24H1453.8V1023.03H1455.73V991.24H1487.76V989.33H1455.73V957.95H1487.76V957.267H1455.73V925.205H1487.76V924.523H1455.73V892.461H1487.76V891.779H1455.73V859.717H1487.76V859.034H1455.73V827.654H1487.76V825.744H1455.73V794.364H1487.76V793.682H1455.73V761.62H1487.76V760.938H1455.73V728.876H1487.76V728.193H1455.73V696.131H1487.76V695.449H1455.73V664.069H1487.76V662.159H1455.73V630.779H1487.76V630.097H1455.73V598.035H1487.76V597.353H1455.73V565.29H1487.76V564.608H1455.73V532.546H1487.76V531.864H1455.73V500.484H1487.76V498.574H1455.73V467.194H1487.76V466.512H1455.73V434.45H1487.76V433.767H1455.73V401.705H1487.76V401.023H1455.73V368.961H1487.76V368.279H1455.73V336.899H1487.76V334.989H1455.73V303.609H1487.76V302.927H1455.73V270.864H1487.76V270.182H1455.73V238.12H1487.76V237.438H1455.73V205.376H1487.76V204.694H1455.73V173.314H1487.76V171.403H1455.73V140.023H1487.76V139.341H1455.73V107.279H1487.76V106.597H1455.73V74.5348H1487.76V73.8526H1455.73V41.7905H1487.76V41.1083H1455.73V9.72831H1487.76H1489ZM1422.73 9.72831V41.1083H1390.41V9.72831H1422.73ZM927.725 498.983H895.412V467.603H927.725V498.983ZM928.275 467.467H959.9V498.847H928.275V467.467ZM894.725 498.983H862.412V467.603H894.725V498.983ZM861.725 498.983H829.412V467.603H861.725V498.983ZM828.725 498.983H797.1V467.603H828.725V498.983ZM795.037 498.983H763.412V467.603H795.037V498.983ZM762.725 498.983H730.412V467.603H762.725V498.983ZM729.725 498.983H697.412V467.603H729.725V498.983ZM696.725 498.983H664.412V467.603H696.725V498.983ZM663.725 498.983H632.1V467.603H663.725V498.983ZM630.037 498.983H598.412V467.603H630.037V498.983ZM597.725 498.983H565.412V467.603H597.725V498.983ZM564.725 498.983H532.412V467.603H564.725V498.983ZM531.725 498.983H499.412V467.603H531.725V498.983ZM498.725 498.983H467.1V467.603H498.725V498.983ZM465.037 498.983H433.412V467.603H465.037V498.983ZM465.037 500.893V532.273H433.412V500.893H465.037ZM466.963 500.893H498.588V532.273H466.963V500.893ZM499.275 500.893H531.588V532.273H499.275V500.893ZM532.275 500.893H564.588V532.273H532.275V500.893ZM565.275 500.893H597.588V532.273H565.275V500.893ZM598.275 500.893H629.9V532.273H598.275V500.893ZM631.963 500.893H663.588V532.273H631.963V500.893ZM664.275 500.893H696.588V532.273H664.275V500.893ZM697.275 500.893H729.588V532.273H697.275V500.893ZM730.275 500.893H762.588V532.273H730.275V500.893ZM763.275 500.893H794.9V532.273H763.275V500.893ZM796.963 500.893H828.588V532.273H796.963V500.893ZM829.275 500.893H861.588V532.273H829.275V500.893ZM862.275 500.893H894.588V532.273H862.275V500.893ZM895.275 500.893H927.588V532.273H895.275V500.893ZM928.275 500.893H959.9V532.273H928.275V500.893ZM961.963 500.893H993.588V532.273H961.963V500.893ZM961.963 498.983V467.603H993.588V498.983H961.963ZM961.963 466.921V434.859H993.588V466.921H961.963ZM960.037 466.921H928.412V434.859H960.037V466.921ZM927.725 466.921H895.412V434.859H927.725V466.921ZM894.725 466.921H862.412V434.859H894.725V466.921ZM861.725 466.921H829.412V434.859H861.725V466.921ZM828.725 466.921H797.1V434.859H828.725V466.921ZM795.037 466.921H763.412V434.859H795.037V466.921ZM762.725 466.921H730.412V434.859H762.725V466.921ZM729.725 466.921H697.412V434.859H729.725V466.921ZM696.725 466.921H664.412V434.859H696.725V466.921ZM663.725 466.921H632.1V434.859H663.725V466.921ZM630.037 466.921H598.412V434.859H630.037V466.921ZM597.725 466.921H565.412V434.859H597.725V466.921ZM564.725 466.921H532.412V434.859H564.725V466.921ZM531.725 466.921H499.412V434.859H531.725V466.921ZM498.725 466.921H467.1V434.859H498.725V466.921ZM465.037 466.921H433.412V434.859H465.037V466.921ZM432.725 466.921H400.412V434.859H432.725V466.921ZM432.725 467.467V498.847H400.412V467.467H432.725ZM432.725 500.893V532.273H400.412V500.893H432.725ZM432.725 532.955V565.018H400.412V532.955H432.725ZM433.275 532.955H464.9V565.018H433.275V532.955ZM466.963 532.955H498.588V565.018H466.963V532.955ZM499.275 532.955H531.588V565.018H499.275V532.955ZM532.275 532.955H564.588V565.018H532.275V532.955ZM565.275 532.955H597.588V565.018H565.275V532.955ZM598.275 532.955H629.9V565.018H598.275V532.955ZM631.963 532.955H663.588V565.018H631.963V532.955ZM664.275 532.955H696.588V565.018H664.275V532.955ZM697.275 532.955H729.588V565.018H697.275V532.955ZM730.275 532.955H762.588V565.018H730.275V532.955ZM763.275 532.955H794.9V565.018H763.275V532.955ZM796.963 532.955H828.588V565.018H796.963V532.955ZM829.275 532.955H861.588V565.018H829.275V532.955ZM862.275 532.955H894.588V565.018H862.275V532.955ZM895.275 532.955H927.588V565.018H895.275V532.955ZM928.275 532.955H959.9V565.018H928.275V532.955ZM961.963 532.955H993.588V565.018H961.963V532.955ZM994.275 532.955H1026.59V565.018H994.275V532.955ZM994.275 532.41V501.03H1026.59V532.41H994.275ZM994.275 498.983V467.603H1026.59V498.983H994.275ZM994.275 466.921V434.859H1026.59V466.921H994.275ZM994.275 434.177V402.115H1026.59V434.177H994.275ZM993.725 434.177H962.1V402.115H993.725V434.177ZM960.037 434.177H928.412V402.115H960.037V434.177ZM927.725 434.177H895.412V402.115H927.725V434.177ZM894.725 434.177H862.412V402.115H894.725V434.177ZM861.725 434.177H829.412V402.115H861.725V434.177ZM828.725 434.177H797.1V402.115H828.725V434.177ZM795.037 434.177H763.412V402.115H795.037V434.177ZM762.725 434.177H730.412V402.115H762.725V434.177ZM729.725 434.177H697.412V402.115H729.725V434.177ZM696.725 434.177H664.412V402.115H696.725V434.177ZM663.725 434.177H632.1V402.115H663.725V434.177ZM630.037 434.177H598.412V402.115H630.037V434.177ZM597.725 434.177H565.412V402.115H597.725V434.177ZM564.725 434.177H532.412V402.115H564.725V434.177ZM531.725 434.177H499.412V402.115H531.725V434.177ZM498.725 434.177H467.1V402.115H498.725V434.177ZM465.037 434.177H433.412V402.115H465.037V434.177ZM432.725 434.177H400.412V402.115H432.725V434.177ZM399.725 434.177H367.412V402.115H399.725V434.177ZM399.725 434.722V466.785H367.412V434.722H399.725ZM399.725 467.467V498.847H367.412V467.467H399.725ZM399.725 500.893V532.273H367.412V500.893H399.725ZM399.725 532.955V565.018H367.412V532.955H399.725ZM399.725 565.7V597.762H367.412V565.7H399.725ZM400.275 565.7H432.588V597.762H400.275V565.7ZM433.275 565.7H464.9V597.762H433.275V565.7ZM466.963 565.7H498.588V597.762H466.963V565.7ZM499.275 565.7H531.588V597.762H499.275V565.7ZM532.275 565.7H564.588V597.762H532.275V565.7ZM565.275 565.7H597.588V597.762H565.275V565.7ZM598.275 565.7H629.9V597.762H598.275V565.7ZM631.963 565.7H663.588V597.762H631.963V565.7ZM664.275 565.7H696.588V597.762H664.275V565.7ZM697.275 565.7H729.588V597.762H697.275V565.7ZM730.275 565.7H762.588V597.762H730.275V565.7ZM763.275 565.7H794.9V597.762H763.275V565.7ZM796.963 565.7H828.588V597.762H796.963V565.7ZM829.275 565.7H861.588V597.762H829.275V565.7ZM862.275 565.7H894.588V597.762H862.275V565.7ZM895.275 565.7H927.588V597.762H895.275V565.7ZM928.275 565.7H959.9V597.762H928.275V565.7ZM961.963 565.7H993.588V597.762H961.963V565.7ZM994.275 565.7H1026.59V597.762H994.275V565.7ZM1027.28 565.7H1059.59V597.762H1027.28V565.7ZM1027.28 565.154V533.092H1059.59V565.154H1027.28ZM1027.28 532.41V501.03H1059.59V532.41H1027.28ZM1027.28 498.983V467.603H1059.59V498.983H1027.28ZM1027.28 466.921V434.859H1059.59V466.921H1027.28ZM1027.28 434.177V402.115H1059.59V434.177H1027.28ZM1027.28 401.432V369.37H1059.59V401.432H1027.28ZM1026.72 401.432H994.412V369.37H1026.72V401.432ZM993.725 401.432H962.1V369.37H993.725V401.432ZM960.037 401.432H928.412V369.37H960.037V401.432ZM927.725 401.432H895.412V369.37H927.725V401.432ZM894.725 401.432H862.412V369.37H894.725V401.432ZM861.725 401.432H829.412V369.37H861.725V401.432ZM828.725 401.432H797.1V369.37H828.725V401.432ZM795.037 401.432H763.412V369.37H795.037V401.432ZM762.725 401.432H730.412V369.37H762.725V401.432ZM729.725 401.432H697.412V369.37H729.725V401.432ZM696.725 401.432H664.412V369.37H696.725V401.432ZM663.725 401.432H632.1V369.37H663.725V401.432ZM630.037 401.432H598.412V369.37H630.037V401.432ZM597.725 401.432H565.412V369.37H597.725V401.432ZM564.725 401.432H532.412V369.37H564.725V401.432ZM531.725 401.432H499.412V369.37H531.725V401.432ZM498.725 401.432H467.1V369.37H498.725V401.432ZM465.037 401.432H433.412V369.37H465.037V401.432ZM432.725 401.432H400.412V369.37H432.725V401.432ZM399.725 401.432H367.412V369.37H399.725V401.432ZM366.725 401.432H334.412V369.37H366.725V401.432ZM366.725 401.978V434.04H334.412V401.978H366.725ZM366.725 434.722V466.785H334.412V434.722H366.725ZM366.725 467.467V498.847H334.412V467.467H366.725ZM366.725 500.893V532.273H334.412V500.893H366.725ZM366.725 532.955V565.018H334.412V532.955H366.725ZM366.725 565.7V597.762H334.412V565.7H366.725ZM366.725 598.444V630.506H334.412V598.444H366.725ZM367.275 598.444H399.588V630.506H367.275V598.444ZM400.275 598.444H432.588V630.506H400.275V598.444ZM433.275 598.444H464.9V630.506H433.275V598.444ZM466.963 598.444H498.588V630.506H466.963V598.444ZM499.275 598.444H531.588V630.506H499.275V598.444ZM532.275 598.444H564.588V630.506H532.275V598.444ZM565.275 598.444H597.588V630.506H565.275V598.444ZM598.275 598.444H629.9V630.506H598.275V598.444ZM631.963 598.444H663.588V630.506H631.963V598.444ZM664.275 598.444H696.588V630.506H664.275V598.444ZM697.275 598.444H729.588V630.506H697.275V598.444ZM730.275 598.444H762.588V630.506H730.275V598.444ZM763.275 598.444H794.9V630.506H763.275V598.444ZM796.963 598.444H828.588V630.506H796.963V598.444ZM829.275 598.444H861.588V630.506H829.275V598.444ZM862.275 598.444H894.588V630.506H862.275V598.444ZM895.275 598.444H927.588V630.506H895.275V598.444ZM928.275 598.444H959.9V630.506H928.275V598.444ZM961.963 598.444H993.588V630.506H961.963V598.444ZM994.275 598.444H1026.59V630.506H994.275V598.444ZM1027.28 598.444H1059.59V630.506H1027.28V598.444ZM1060.28 598.444H1092.59V630.506H1060.28V598.444ZM1060.28 597.898V565.836H1092.59V597.898H1060.28ZM1060.28 565.154V533.092H1092.59V565.154H1060.28ZM1060.28 532.41V501.03H1092.59V532.41H1060.28ZM1060.28 498.983V467.603H1092.59V498.983H1060.28ZM1060.28 466.921V434.859H1092.59V466.921H1060.28ZM1060.28 434.177V402.115H1092.59V434.177H1060.28ZM1060.28 401.432V369.37H1092.59V401.432H1060.28ZM1060.28 368.688V337.308H1092.59V368.688H1060.28ZM1059.72 368.688H1027.41V337.308H1059.72V368.688ZM1026.72 368.688H994.412V337.308H1026.72V368.688ZM993.725 368.688H962.1V337.308H993.725V368.688ZM960.037 368.688H928.412V337.308H960.037V368.688ZM927.725 368.688H895.412V337.308H927.725V368.688ZM894.725 368.688H862.412V337.308H894.725V368.688ZM861.725 368.688H829.412V337.308H861.725V368.688ZM828.725 368.688H797.1V337.308H828.725V368.688ZM795.037 368.688H763.412V337.308H795.037V368.688ZM762.725 368.688H730.412V337.308H762.725V368.688ZM729.725 368.688H697.412V337.308H729.725V368.688ZM696.725 368.688H664.412V337.308H696.725V368.688ZM663.725 368.688H632.1V337.308H663.725V368.688ZM630.037 368.688H598.412V337.308H630.037V368.688ZM597.725 368.688H565.412V337.308H597.725V368.688ZM564.725 368.688H532.412V337.308H564.725V368.688ZM531.725 368.688H499.412V337.308H531.725V368.688ZM498.725 368.688H467.1V337.308H498.725V368.688ZM465.037 368.688H433.412V337.308H465.037V368.688ZM432.725 368.688H400.412V337.308H432.725V368.688ZM399.725 368.688H367.412V337.308H399.725V368.688ZM366.725 368.688H334.412V337.308H366.725V368.688ZM333.725 368.688H302.1V337.308H333.725V368.688ZM333.725 369.234V401.296H302.1V369.234H333.725ZM333.725 401.978V434.04H302.1V401.978H333.725ZM333.725 434.722V466.785H302.1V434.722H333.725ZM333.725 467.467V498.847H302.1V467.467H333.725ZM333.725 500.893V532.273H302.1V500.893H333.725ZM333.725 532.955V565.018H302.1V532.955H333.725ZM333.725 565.7V597.762H302.1V565.7H333.725ZM333.725 598.444V630.506H302.1V598.444H333.725ZM333.725 631.188V662.568H302.1V631.188H333.725ZM334.275 631.188H366.588V662.568H334.275V631.188ZM367.275 631.188H399.588V662.568H367.275V631.188ZM400.275 631.188H432.588V662.568H400.275V631.188ZM433.275 631.188H464.9V662.568H433.275V631.188ZM466.963 631.188H498.588V662.568H466.963V631.188ZM499.275 631.188H531.588V662.568H499.275V631.188ZM532.275 631.188H564.588V662.568H532.275V631.188ZM565.275 631.188H597.588V662.568H565.275V631.188ZM598.275 631.188H629.9V662.568H598.275V631.188ZM631.963 631.188H663.588V662.568H631.963V631.188ZM664.275 631.188H696.588V662.568H664.275V631.188ZM697.275 631.188H729.588V662.568H697.275V631.188ZM730.275 631.188H762.588V662.568H730.275V631.188ZM763.275 631.188H794.9V662.568H763.275V631.188ZM796.963 631.188H828.588V662.568H796.963V631.188ZM829.275 631.188H861.588V662.568H829.275V631.188ZM862.275 631.188H894.588V662.568H862.275V631.188ZM895.275 631.188H927.588V662.568H895.275V631.188ZM928.275 631.188H959.9V662.568H928.275V631.188ZM961.963 631.188H993.588V662.568H961.963V631.188ZM994.275 631.188H1026.59V662.568H994.275V631.188ZM1027.28 631.188H1059.59V662.568H1027.28V631.188ZM1060.28 631.188H1092.59V662.568H1060.28V631.188ZM1093.28 631.188H1124.9V662.568H1093.28V631.188ZM1093.28 630.643V598.581H1124.9V630.643H1093.28ZM1093.28 597.898V565.836H1124.9V597.898H1093.28ZM1093.28 565.154V533.092H1124.9V565.154H1093.28ZM1093.28 532.41V501.03H1124.9V532.41H1093.28ZM1093.28 498.983V467.603H1124.9V498.983H1093.28ZM1093.28 466.921V434.859H1124.9V466.921H1093.28ZM1093.28 434.177V402.115H1124.9V434.177H1093.28ZM1093.28 401.432V369.37H1124.9V401.432H1093.28ZM1093.28 368.688V337.308H1124.9V368.688H1093.28ZM1093.28 335.262V303.882H1124.9V335.262H1093.28ZM1092.72 335.262H1060.41V303.882H1092.72V335.262ZM1059.72 335.262H1027.41V303.882H1059.72V335.262ZM1026.72 335.262H994.412V303.882H1026.72V335.262ZM993.725 335.262H962.1V303.882H993.725V335.262ZM960.037 335.262H928.412V303.882H960.037V335.262ZM927.725 335.262H895.412V303.882H927.725V335.262ZM894.725 335.262H862.412V303.882H894.725V335.262ZM861.725 335.262H829.412V303.882H861.725V335.262ZM828.725 335.262H797.1V303.882H828.725V335.262ZM795.037 335.262H763.412V303.882H795.037V335.262ZM762.725 335.262H730.412V303.882H762.725V335.262ZM729.725 335.262H697.412V303.882H729.725V335.262ZM696.725 335.262H664.412V303.882H696.725V335.262ZM663.725 335.262H632.1V303.882H663.725V335.262ZM630.037 335.262H598.412V303.882H630.037V335.262ZM597.725 335.262H565.412V303.882H597.725V335.262ZM564.725 335.262H532.412V303.882H564.725V335.262ZM531.725 335.262H499.412V303.882H531.725V335.262ZM498.725 335.262H467.1V303.882H498.725V335.262ZM465.037 335.262H433.412V303.882H465.037V335.262ZM432.725 335.262H400.412V303.882H432.725V335.262ZM399.725 335.262H367.412V303.882H399.725V335.262ZM366.725 335.262H334.412V303.882H366.725V335.262ZM333.725 335.262H302.1V303.882H333.725V335.262ZM300.037 335.262H268.413V303.882H300.037V335.262ZM300.037 337.172V368.552H268.413V337.172H300.037ZM300.037 369.234V401.296H268.413V369.234H300.037ZM300.037 401.978V434.04H268.413V401.978H300.037ZM300.037 434.722V466.785H268.413V434.722H300.037ZM300.037 467.467V498.847H268.413V467.467H300.037ZM300.037 500.893V532.273H268.413V500.893H300.037ZM300.037 532.955V565.018H268.413V532.955H300.037ZM300.037 565.7V597.762H268.413V565.7H300.037ZM300.037 598.444V630.506H268.413V598.444H300.037ZM300.037 631.188V662.568H268.413V631.188H300.037ZM300.037 664.615V695.995H268.413V664.615H300.037ZM301.963 664.615H333.588V695.995H301.963V664.615ZM334.275 664.615H366.588V695.995H334.275V664.615ZM367.275 664.615H399.588V695.995H367.275V664.615ZM400.275 664.615H432.588V695.995H400.275V664.615ZM433.275 664.615H464.9V695.995H433.275V664.615ZM466.963 664.615H498.588V695.995H466.963V664.615ZM499.275 664.615H531.588V695.995H499.275V664.615ZM532.275 664.615H564.588V695.995H532.275V664.615ZM565.275 664.615H597.588V695.995H565.275V664.615ZM598.275 664.615H629.9V695.995H598.275V664.615ZM631.963 664.615H663.588V695.995H631.963V664.615ZM664.275 664.615H696.588V695.995H664.275V664.615ZM697.275 664.615H729.588V695.995H697.275V664.615ZM730.275 664.615H762.588V695.995H730.275V664.615ZM763.275 664.615H794.9V695.995H763.275V664.615ZM796.963 664.615H828.588V695.995H796.963V664.615ZM829.275 664.615H861.588V695.995H829.275V664.615ZM862.275 664.615H894.588V695.995H862.275V664.615ZM895.275 664.615H927.588V695.995H895.275V664.615ZM928.275 664.615H959.9V695.995H928.275V664.615ZM961.963 664.615H993.588V695.995H961.963V664.615ZM994.275 664.615H1026.59V695.995H994.275V664.615ZM1027.28 664.615H1059.59V695.995H1027.28V664.615ZM1060.28 664.615H1092.59V695.995H1060.28V664.615ZM1093.28 664.615H1124.9V695.995H1093.28V664.615ZM1126.96 664.615H1158.59V695.995H1126.96V664.615ZM1126.96 662.705V631.325H1158.59V662.705H1126.96ZM1126.96 630.643V598.581H1158.59V630.643H1126.96ZM1126.96 597.898V565.836H1158.59V597.898H1126.96ZM1126.96 565.154V533.092H1158.59V565.154H1126.96ZM1126.96 532.41V501.03H1158.59V532.41H1126.96ZM1126.96 498.983V467.603H1158.59V498.983H1126.96ZM1126.96 466.921V434.859H1158.59V466.921H1126.96ZM1126.96 434.177V402.115H1158.59V434.177H1126.96ZM1126.96 401.432V369.37H1158.59V401.432H1126.96ZM1126.96 368.688V337.308H1158.59V368.688H1126.96ZM1126.96 335.262V303.882H1158.59V335.262H1126.96ZM1126.96 303.199V271.137H1158.59V303.199H1126.96ZM1125.04 303.199H1093.41V271.137H1125.04V303.199ZM1092.72 303.199H1060.41V271.137H1092.72V303.199ZM1059.72 303.199H1027.41V271.137H1059.72V303.199ZM1026.72 303.199H994.412V271.137H1026.72V303.199ZM993.725 303.199H962.1V271.137H993.725V303.199ZM960.037 303.199H928.412V271.137H960.037V303.199ZM927.725 303.199H895.412V271.137H927.725V303.199ZM894.725 303.199H862.412V271.137H894.725V303.199ZM861.725 303.199H829.412V271.137H861.725V303.199ZM828.725 303.199H797.1V271.137H828.725V303.199ZM795.037 303.199H763.412V271.137H795.037V303.199ZM762.725 303.199H730.412V271.137H762.725V303.199ZM729.725 303.199H697.412V271.137H729.725V303.199ZM696.725 303.199H664.412V271.137H696.725V303.199ZM663.725 303.199H632.1V271.137H663.725V303.199ZM630.037 303.199H598.412V271.137H630.037V303.199ZM597.725 303.199H565.412V271.137H597.725V303.199ZM564.725 303.199H532.412V271.137H564.725V303.199ZM531.725 303.199H499.412V271.137H531.725V303.199ZM498.725 303.199H467.1V271.137H498.725V303.199ZM465.037 303.199H433.412V271.137H465.037V303.199ZM432.725 303.199H400.412V271.137H432.725V303.199ZM399.725 303.199H367.412V271.137H399.725V303.199ZM366.725 303.199H334.412V271.137H366.725V303.199ZM333.725 303.199H302.1V271.137H333.725V303.199ZM300.037 303.199H268.413V271.137H300.037V303.199ZM267.725 303.199H235.413V271.137H267.725V303.199ZM267.725 303.745V335.125H235.413V303.745H267.725ZM267.725 337.172V368.552H235.413V337.172H267.725ZM267.725 369.234V401.296H235.413V369.234H267.725ZM267.725 401.978V434.04H235.413V401.978H267.725ZM267.725 434.722V466.785H235.413V434.722H267.725ZM267.725 467.467V498.847H235.413V467.467H267.725ZM267.725 500.893V532.273H235.413V500.893H267.725ZM267.725 532.955V565.018H235.413V532.955H267.725ZM267.725 565.7V597.762H235.413V565.7H267.725ZM267.725 598.444V630.506H235.413V598.444H267.725ZM267.725 631.188V662.568H235.413V631.188H267.725ZM267.725 664.615V695.995H235.413V664.615H267.725ZM267.725 696.677V728.739H235.413V696.677H267.725ZM268.275 696.677H299.9V728.739H268.275V696.677ZM301.963 696.677H333.588V728.739H301.963V696.677ZM334.275 696.677H366.588V728.739H334.275V696.677ZM367.275 696.677H399.588V728.739H367.275V696.677ZM400.275 696.677H432.588V728.739H400.275V696.677ZM433.275 696.677H464.9V728.739H433.275V696.677ZM466.963 696.677H498.588V728.739H466.963V696.677ZM499.275 696.677H531.588V728.739H499.275V696.677ZM532.275 696.677H564.588V728.739H532.275V696.677ZM565.275 696.677H597.588V728.739H565.275V696.677ZM598.275 696.677H629.9V728.739H598.275V696.677ZM631.963 696.677H663.588V728.739H631.963V696.677ZM664.275 696.677H696.588V728.739H664.275V696.677ZM697.275 696.677H729.588V728.739H697.275V696.677ZM730.275 696.677H762.588V728.739H730.275V696.677ZM763.275 696.677H794.9V728.739H763.275V696.677ZM796.963 696.677H828.588V728.739H796.963V696.677ZM829.275 696.677H861.588V728.739H829.275V696.677ZM862.275 696.677H894.588V728.739H862.275V696.677ZM895.275 696.677H927.588V728.739H895.275V696.677ZM928.275 696.677H959.9V728.739H928.275V696.677ZM961.963 696.677H993.588V728.739H961.963V696.677ZM994.275 696.677H1026.59V728.739H994.275V696.677ZM1027.28 696.677H1059.59V728.739H1027.28V696.677ZM1060.28 696.677H1092.59V728.739H1060.28V696.677ZM1093.28 696.677H1124.9V728.739H1093.28V696.677ZM1126.96 696.677H1158.59V728.739H1126.96V696.677ZM1159.28 696.677H1191.59V728.739H1159.28V696.677ZM1159.28 696.131V664.751H1191.59V696.131H1159.28ZM1159.28 662.705V631.325H1191.59V662.705H1159.28ZM1159.28 630.643V598.581H1191.59V630.643H1159.28ZM1159.28 597.898V565.836H1191.59V597.898H1159.28ZM1159.28 565.154V533.092H1191.59V565.154H1159.28ZM1159.28 532.41V501.03H1191.59V532.41H1159.28ZM1159.28 498.983V467.603H1191.59V498.983H1159.28ZM1159.28 466.921V434.859H1191.59V466.921H1159.28ZM1159.28 434.177V402.115H1191.59V434.177H1159.28ZM1159.28 401.432V369.37H1191.59V401.432H1159.28ZM1159.28 368.688V337.308H1191.59V368.688H1159.28ZM1159.28 335.262V303.882H1191.59V335.262H1159.28ZM1159.28 303.199V271.137H1191.59V303.199H1159.28ZM1159.28 270.455V238.393H1191.59V270.455H1159.28ZM1158.72 270.455H1127.1V238.393H1158.72V270.455ZM1125.04 270.455H1093.41V238.393H1125.04V270.455ZM1092.72 270.455H1060.41V238.393H1092.72V270.455ZM1059.72 270.455H1027.41V238.393H1059.72V270.455ZM1026.72 270.455H994.412V238.393H1026.72V270.455ZM993.725 270.455H962.1V238.393H993.725V270.455ZM960.037 270.455H928.412V238.393H960.037V270.455ZM927.725 270.455H895.412V238.393H927.725V270.455ZM894.725 270.455H862.412V238.393H894.725V270.455ZM861.725 270.455H829.412V238.393H861.725V270.455ZM828.725 270.455H797.1V238.393H828.725V270.455ZM795.037 270.455H763.412V238.393H795.037V270.455ZM762.725 270.455H730.412V238.393H762.725V270.455ZM729.725 270.455H697.412V238.393H729.725V270.455ZM696.725 270.455H664.412V238.393H696.725V270.455ZM663.725 270.455H632.1V238.393H663.725V270.455ZM630.037 270.455H598.412V238.393H630.037V270.455ZM597.725 270.455H565.412V238.393H597.725V270.455ZM564.725 270.455H532.412V238.393H564.725V270.455ZM531.725 270.455H499.412V238.393H531.725V270.455ZM498.725 270.455H467.1V238.393H498.725V270.455ZM465.037 270.455H433.412V238.393H465.037V270.455ZM432.725 270.455H400.412V238.393H432.725V270.455ZM399.725 270.455H367.412V238.393H399.725V270.455ZM366.725 270.455H334.412V238.393H366.725V270.455ZM333.725 270.455H302.1V238.393H333.725V270.455ZM300.037 270.455H268.413V238.393H300.037V270.455ZM267.725 270.455H235.413V238.393H267.725V270.455ZM234.725 270.455H202.413V238.393H234.725V270.455ZM234.725 271.001V303.063H202.413V271.001H234.725ZM234.725 303.745V335.125H202.413V303.745H234.725ZM234.725 337.172V368.552H202.413V337.172H234.725ZM234.725 369.234V401.296H202.413V369.234H234.725ZM234.725 401.978V434.04H202.413V401.978H234.725ZM234.725 434.722V466.785H202.413V434.722H234.725ZM234.725 467.467V498.847H202.413V467.467H234.725ZM234.725 500.893V532.273H202.413V500.893H234.725ZM234.725 532.955V565.018H202.413V532.955H234.725ZM234.725 565.7V597.762H202.413V565.7H234.725ZM234.725 598.444V630.506H202.413V598.444H234.725ZM234.725 631.188V662.568H202.413V631.188H234.725ZM234.725 664.615V695.995H202.413V664.615H234.725ZM234.725 696.677V728.739H202.413V696.677H234.725ZM234.725 729.421V761.484H202.413V729.421H234.725ZM235.275 729.421H267.587V761.484H235.275V729.421ZM268.275 729.421H299.9V761.484H268.275V729.421ZM301.963 729.421H333.588V761.484H301.963V729.421ZM334.275 729.421H366.588V761.484H334.275V729.421ZM367.275 729.421H399.588V761.484H367.275V729.421ZM400.275 729.421H432.588V761.484H400.275V729.421ZM433.275 729.421H464.9V761.484H433.275V729.421ZM466.963 729.421H498.588V761.484H466.963V729.421ZM499.275 729.421H531.588V761.484H499.275V729.421ZM532.275 729.421H564.588V761.484H532.275V729.421ZM565.275 729.421H597.588V761.484H565.275V729.421ZM598.275 729.421H629.9V761.484H598.275V729.421ZM631.963 729.421H663.588V761.484H631.963V729.421ZM664.275 729.421H696.588V761.484H664.275V729.421ZM697.275 729.421H729.588V761.484H697.275V729.421ZM730.275 729.421H762.588V761.484H730.275V729.421ZM763.275 729.421H794.9V761.484H763.275V729.421ZM796.963 729.421H828.588V761.484H796.963V729.421ZM829.275 729.421H861.588V761.484H829.275V729.421ZM862.275 729.421H894.588V761.484H862.275V729.421ZM895.275 729.421H927.588V761.484H895.275V729.421ZM928.275 729.421H959.9V761.484H928.275V729.421ZM961.963 729.421H993.588V761.484H961.963V729.421ZM994.275 729.421H1026.59V761.484H994.275V729.421ZM1027.28 729.421H1059.59V761.484H1027.28V729.421ZM1060.28 729.421H1092.59V761.484H1060.28V729.421ZM1093.28 729.421H1124.9V761.484H1093.28V729.421ZM1126.96 729.421H1158.59V761.484H1126.96V729.421ZM1159.28 729.421H1191.59V761.484H1159.28V729.421ZM1192.28 729.421H1224.59V761.484H1192.28V729.421ZM1192.28 728.876V696.813H1224.59V728.876H1192.28ZM1192.28 696.131V664.751H1224.59V696.131H1192.28ZM1192.28 662.705V631.325H1224.59V662.705H1192.28ZM1192.28 630.643V598.581H1224.59V630.643H1192.28ZM1192.28 597.898V565.836H1224.59V597.898H1192.28ZM1192.28 565.154V533.092H1224.59V565.154H1192.28ZM1192.28 532.41V501.03H1224.59V532.41H1192.28ZM1192.28 498.983V467.603H1224.59V498.983H1192.28ZM1192.28 466.921V434.859H1224.59V466.921H1192.28ZM1192.28 434.177V402.115H1224.59V434.177H1192.28ZM1192.28 401.432V369.37H1224.59V401.432H1192.28ZM1192.28 368.688V337.308H1224.59V368.688H1192.28ZM1192.28 335.262V303.882H1224.59V335.262H1192.28ZM1192.28 303.199V271.137H1224.59V303.199H1192.28ZM1192.28 270.455V238.393H1224.59V270.455H1192.28ZM1192.28 237.711V205.649H1224.59V237.711H1192.28ZM1191.72 237.711H1159.41V205.649H1191.72V237.711ZM1158.72 237.711H1127.1V205.649H1158.72V237.711ZM1125.04 237.711H1093.41V205.649H1125.04V237.711ZM1092.72 237.711H1060.41V205.649H1092.72V237.711ZM1059.72 237.711H1027.41V205.649H1059.72V237.711ZM1026.72 237.711H994.412V205.649H1026.72V237.711ZM993.725 237.711H962.1V205.649H993.725V237.711ZM960.037 237.711H928.412V205.649H960.037V237.711ZM927.725 237.711H895.412V205.649H927.725V237.711ZM894.725 237.711H862.412V205.649H894.725V237.711ZM861.725 237.711H829.412V205.649H861.725V237.711ZM828.725 237.711H797.1V205.649H828.725V237.711ZM795.037 237.711H763.412V205.649H795.037V237.711ZM762.725 237.711H730.412V205.649H762.725V237.711ZM729.725 237.711H697.412V205.649H729.725V237.711ZM696.725 237.711H664.412V205.649H696.725V237.711ZM663.725 237.711H632.1V205.649H663.725V237.711ZM630.037 237.711H598.412V205.649H630.037V237.711ZM597.725 237.711H565.412V205.649H597.725V237.711ZM564.725 237.711H532.412V205.649H564.725V237.711ZM531.725 237.711H499.412V205.649H531.725V237.711ZM498.725 237.711H467.1V205.649H498.725V237.711ZM465.037 237.711H433.412V205.649H465.037V237.711ZM432.725 237.711H400.412V205.649H432.725V237.711ZM399.725 237.711H367.412V205.649H399.725V237.711ZM366.725 237.711H334.412V205.649H366.725V237.711ZM333.725 237.711H302.1V205.649H333.725V237.711ZM300.037 237.711H268.413V205.649H300.037V237.711ZM267.725 237.711H235.413V205.649H267.725V237.711ZM234.725 237.711H202.413V205.649H234.725V237.711ZM201.725 237.711H169.413V205.649H201.725V237.711ZM201.725 238.256V270.319H169.413V238.256H201.725ZM201.725 271.001V303.063H169.413V271.001H201.725ZM201.725 303.745V335.125H169.413V303.745H201.725ZM201.725 337.172V368.552H169.413V337.172H201.725ZM201.725 369.234V401.296H169.413V369.234H201.725ZM201.725 401.978V434.04H169.413V401.978H201.725ZM201.725 434.722V466.785H169.413V434.722H201.725ZM201.725 467.467V498.847H169.413V467.467H201.725ZM201.725 500.893V532.273H169.413V500.893H201.725ZM201.725 532.955V565.018H169.413V532.955H201.725ZM201.725 565.7V597.762H169.413V565.7H201.725ZM201.725 598.444V630.506H169.413V598.444H201.725ZM201.725 631.188V662.568H169.413V631.188H201.725ZM201.725 664.615V695.995H169.413V664.615H201.725ZM201.725 696.677V728.739H169.413V696.677H201.725ZM201.725 729.421V761.484H169.413V729.421H201.725ZM201.725 762.166V794.228H169.413V762.166H201.725ZM202.275 762.166H234.587V794.228H202.275V762.166ZM235.275 762.166H267.587V794.228H235.275V762.166ZM268.275 762.166H299.9V794.228H268.275V762.166ZM301.963 762.166H333.588V794.228H301.963V762.166ZM334.275 762.166H366.588V794.228H334.275V762.166ZM367.275 762.166H399.588V794.228H367.275V762.166ZM400.275 762.166H432.588V794.228H400.275V762.166ZM433.275 762.166H464.9V794.228H433.275V762.166ZM466.963 762.166H498.588V794.228H466.963V762.166ZM499.275 762.166H531.588V794.228H499.275V762.166ZM532.275 762.166H564.588V794.228H532.275V762.166ZM565.275 762.166H597.588V794.228H565.275V762.166ZM598.275 762.166H629.9V794.228H598.275V762.166ZM631.963 762.166H663.588V794.228H631.963V762.166ZM664.275 762.166H696.588V794.228H664.275V762.166ZM697.275 762.166H729.588V794.228H697.275V762.166ZM730.275 762.166H762.588V794.228H730.275V762.166ZM763.275 762.166H794.9V794.228H763.275V762.166ZM796.963 762.166H828.588V794.228H796.963V762.166ZM829.275 762.166H861.588V794.228H829.275V762.166ZM862.275 762.166H894.588V794.228H862.275V762.166ZM895.275 762.166H927.588V794.228H895.275V762.166ZM928.275 762.166H959.9V794.228H928.275V762.166ZM961.963 762.166H993.588V794.228H961.963V762.166ZM994.275 762.166H1026.59V794.228H994.275V762.166ZM1027.28 762.166H1059.59V794.228H1027.28V762.166ZM1060.28 762.166H1092.59V794.228H1060.28V762.166ZM1093.28 762.166H1124.9V794.228H1093.28V762.166ZM1126.96 762.166H1158.59V794.228H1126.96V762.166ZM1159.28 762.166H1191.59V794.228H1159.28V762.166ZM1192.28 762.166H1224.59V794.228H1192.28V762.166ZM1225.28 762.166H1257.59V794.228H1225.28V762.166ZM1225.28 761.62V729.558H1257.59V761.62H1225.28ZM1225.28 728.876V696.813H1257.59V728.876H1225.28ZM1225.28 696.131V664.751H1257.59V696.131H1225.28ZM1225.28 662.705V631.325H1257.59V662.705H1225.28ZM1225.28 630.643V598.581H1257.59V630.643H1225.28ZM1225.28 597.898V565.836H1257.59V597.898H1225.28ZM1225.28 565.154V533.092H1257.59V565.154H1225.28ZM1225.28 532.41V501.03H1257.59V532.41H1225.28ZM1225.28 498.983V467.603H1257.59V498.983H1225.28ZM1225.28 466.921V434.859H1257.59V466.921H1225.28ZM1225.28 434.177V402.115H1257.59V434.177H1225.28ZM1225.28 401.432V369.37H1257.59V401.432H1225.28ZM1225.28 368.688V337.308H1257.59V368.688H1225.28ZM1225.28 335.262V303.882H1257.59V335.262H1225.28ZM1225.28 303.199V271.137H1257.59V303.199H1225.28ZM1225.28 270.455V238.393H1257.59V270.455H1225.28ZM1225.28 237.711V205.649H1257.59V237.711H1225.28ZM1225.28 204.966V173.586H1257.59V204.966H1225.28ZM1224.72 204.966H1192.41V173.586H1224.72V204.966ZM1191.72 204.966H1159.41V173.586H1191.72V204.966ZM1158.72 204.966H1127.1V173.586H1158.72V204.966ZM1125.04 204.966H1093.41V173.586H1125.04V204.966ZM1092.72 204.966H1060.41V173.586H1092.72V204.966ZM1059.72 204.966H1027.41V173.586H1059.72V204.966ZM1026.72 204.966H994.412V173.586H1026.72V204.966ZM993.725 204.966H962.1V173.586H993.725V204.966ZM960.037 204.966H928.412V173.586H960.037V204.966ZM927.725 204.966H895.412V173.586H927.725V204.966ZM894.725 204.966H862.412V173.586H894.725V204.966ZM861.725 204.966H829.412V173.586H861.725V204.966ZM828.725 204.966H797.1V173.586H828.725V204.966ZM795.037 204.966H763.412V173.586H795.037V204.966ZM762.725 204.966H730.412V173.586H762.725V204.966ZM729.725 204.966H697.412V173.586H729.725V204.966ZM696.725 204.966H664.412V173.586H696.725V204.966ZM663.725 204.966H632.1V173.586H663.725V204.966ZM630.037 204.966H598.412V173.586H630.037V204.966ZM597.725 204.966H565.412V173.586H597.725V204.966ZM564.725 204.966H532.412V173.586H564.725V204.966ZM531.725 204.966H499.412V173.586H531.725V204.966ZM498.725 204.966H467.1V173.586H498.725V204.966ZM465.037 204.966H433.412V173.586H465.037V204.966ZM432.725 204.966H400.412V173.586H432.725V204.966ZM399.725 204.966H367.412V173.586H399.725V204.966ZM366.725 204.966H334.412V173.586H366.725V204.966ZM333.725 204.966H302.1V173.586H333.725V204.966ZM300.037 204.966H268.413V173.586H300.037V204.966ZM267.725 204.966H235.413V173.586H267.725V204.966ZM234.725 204.966H202.413V173.586H234.725V204.966ZM201.725 204.966H169.413V173.586H201.725V204.966ZM168.725 204.966H137.1V173.586H168.725V204.966ZM168.725 205.512V237.574H137.1V205.512H168.725ZM168.725 238.256V270.319H137.1V238.256H168.725ZM168.725 271.001V303.063H137.1V271.001H168.725ZM168.725 303.745V335.125H137.1V303.745H168.725ZM168.725 337.172V368.552H137.1V337.172H168.725ZM168.725 369.234V401.296H137.1V369.234H168.725ZM168.725 401.978V434.04H137.1V401.978H168.725ZM168.725 434.722V466.785H137.1V434.722H168.725ZM168.725 467.467V498.847H137.1V467.467H168.725ZM168.725 500.893V532.273H137.1V500.893H168.725ZM168.725 532.955V565.018H137.1V532.955H168.725ZM168.725 565.7V597.762H137.1V565.7H168.725ZM168.725 598.444V630.506H137.1V598.444H168.725ZM168.725 631.188V662.568H137.1V631.188H168.725ZM168.725 664.615V695.995H137.1V664.615H168.725ZM168.725 696.677V728.739H137.1V696.677H168.725ZM168.725 729.421V761.484H137.1V729.421H168.725ZM168.725 762.166V794.228H137.1V762.166H168.725ZM168.725 794.91V826.29H137.1V794.91H168.725ZM169.275 794.91H201.587V826.29H169.275V794.91ZM202.275 794.91H234.587V826.29H202.275V794.91ZM235.275 794.91H267.587V826.29H235.275V794.91ZM268.275 794.91H299.9V826.29H268.275V794.91ZM301.963 794.91H333.588V826.29H301.963V794.91ZM334.275 794.91H366.588V826.29H334.275V794.91ZM367.275 794.91H399.588V826.29H367.275V794.91ZM400.275 794.91H432.588V826.29H400.275V794.91ZM433.275 794.91H464.9V826.29H433.275V794.91ZM466.963 794.91H498.588V826.29H466.963V794.91ZM499.275 794.91H531.588V826.29H499.275V794.91ZM532.275 794.91H564.588V826.29H532.275V794.91ZM565.275 794.91H597.588V826.29H565.275V794.91ZM598.275 794.91H629.9V826.29H598.275V794.91ZM631.963 794.91H663.588V826.29H631.963V794.91ZM664.275 794.91H696.588V826.29H664.275V794.91ZM697.275 794.91H729.588V826.29H697.275V794.91ZM730.275 794.91H762.588V826.29H730.275V794.91ZM763.275 794.91H794.9V826.29H763.275V794.91ZM796.963 794.91H828.588V826.29H796.963V794.91ZM829.275 794.91H861.588V826.29H829.275V794.91ZM862.275 794.91H894.588V826.29H862.275V794.91ZM895.275 794.91H927.588V826.29H895.275V794.91ZM928.275 794.91H959.9V826.29H928.275V794.91ZM961.963 794.91H993.588V826.29H961.963V794.91ZM994.275 794.91H1026.59V826.29H994.275V794.91ZM1027.28 794.91H1059.59V826.29H1027.28V794.91ZM1060.28 794.91H1092.59V826.29H1060.28V794.91ZM1093.28 794.91H1124.9V826.29H1093.28V794.91ZM1126.96 794.91H1158.59V826.29H1126.96V794.91ZM1159.28 794.91H1191.59V826.29H1159.28V794.91ZM1192.28 794.91H1224.59V826.29H1192.28V794.91ZM1225.28 794.91H1257.59V826.29H1225.28V794.91ZM1258.28 794.91H1289.9V826.29H1258.28V794.91ZM1258.28 794.364V762.302H1289.9V794.364H1258.28ZM1258.28 761.62V729.558H1289.9V761.62H1258.28ZM1258.28 728.876V696.813H1289.9V728.876H1258.28ZM1258.28 696.131V664.751H1289.9V696.131H1258.28ZM1258.28 662.705V631.325H1289.9V662.705H1258.28ZM1258.28 630.643V598.581H1289.9V630.643H1258.28ZM1258.28 597.898V565.836H1289.9V597.898H1258.28ZM1258.28 565.154V533.092H1289.9V565.154H1258.28ZM1258.28 532.41V501.03H1289.9V532.41H1258.28ZM1258.28 498.983V467.603H1289.9V498.983H1258.28ZM1258.28 466.921V434.859H1289.9V466.921H1258.28ZM1258.28 434.177V402.115H1289.9V434.177H1258.28ZM1258.28 401.432V369.37H1289.9V401.432H1258.28ZM1258.28 368.688V337.308H1289.9V368.688H1258.28ZM1258.28 335.262V303.882H1289.9V335.262H1258.28ZM1258.28 303.199V271.137H1289.9V303.199H1258.28ZM1258.28 270.455V238.393H1289.9V270.455H1258.28ZM1258.28 237.711V205.649H1289.9V237.711H1258.28ZM1258.28 204.966V173.586H1289.9V204.966H1258.28ZM1258.28 171.54V140.16H1289.9V171.54H1258.28ZM1257.72 171.54H1225.41V140.16H1257.72V171.54ZM1224.72 171.54H1192.41V140.16H1224.72V171.54ZM1191.72 171.54H1159.41V140.16H1191.72V171.54ZM1158.72 171.54H1127.1V140.16H1158.72V171.54ZM1125.04 171.54H1093.41V140.16H1125.04V171.54ZM1092.72 171.54H1060.41V140.16H1092.72V171.54ZM1059.72 171.54H1027.41V140.16H1059.72V171.54ZM1026.72 171.54H994.412V140.16H1026.72V171.54ZM993.725 171.54H962.1V140.16H993.725V171.54ZM960.037 171.54H928.412V140.16H960.037V171.54ZM927.725 171.54H895.412V140.16H927.725V171.54ZM894.725 171.54H862.412V140.16H894.725V171.54ZM861.725 171.54H829.412V140.16H861.725V171.54ZM828.725 171.54H797.1V140.16H828.725V171.54ZM795.037 171.54H763.412V140.16H795.037V171.54ZM762.725 171.54H730.412V140.16H762.725V171.54ZM729.725 171.54H697.412V140.16H729.725V171.54ZM696.725 171.54H664.412V140.16H696.725V171.54ZM663.725 171.54H632.1V140.16H663.725V171.54ZM630.037 171.54H598.412V140.16H630.037V171.54ZM597.725 171.54H565.412V140.16H597.725V171.54ZM564.725 171.54H532.412V140.16H564.725V171.54ZM531.725 171.54H499.412V140.16H531.725V171.54ZM498.725 171.54H467.1V140.16H498.725V171.54ZM465.037 171.54H433.412V140.16H465.037V171.54ZM432.725 171.54H400.412V140.16H432.725V171.54ZM399.725 171.54H367.412V140.16H399.725V171.54ZM366.725 171.54H334.412V140.16H366.725V171.54ZM333.725 171.54H302.1V140.16H333.725V171.54ZM300.037 171.54H268.413V140.16H300.037V171.54ZM267.725 171.54H235.413V140.16H267.725V171.54ZM234.725 171.54H202.413V140.16H234.725V171.54ZM201.725 171.54H169.413V140.16H201.725V171.54ZM168.725 171.54H137.1V140.16H168.725V171.54ZM135.038 171.54H103.413V140.16H135.038V171.54ZM135.038 173.45V204.83H103.413V173.45H135.038ZM135.038 205.512V237.574H103.413V205.512H135.038ZM135.038 238.256V270.319H103.413V238.256H135.038ZM135.038 271.001V303.063H103.413V271.001H135.038ZM135.038 303.745V335.125H103.413V303.745H135.038ZM135.038 337.172V368.552H103.413V337.172H135.038ZM135.038 369.234V401.296H103.413V369.234H135.038ZM135.038 401.978V434.04H103.413V401.978H135.038ZM135.038 434.722V466.785H103.413V434.722H135.038ZM135.038 467.467V498.847H103.413V467.467H135.038ZM135.038 500.893V532.273H103.413V500.893H135.038ZM135.038 532.955V565.018H103.413V532.955H135.038ZM135.038 565.7V597.762H103.413V565.7H135.038ZM135.038 598.444V630.506H103.413V598.444H135.038ZM135.038 631.188V662.568H103.413V631.188H135.038ZM135.038 664.615V695.995H103.413V664.615H135.038ZM135.038 696.677V728.739H103.413V696.677H135.038ZM135.038 729.421V761.484H103.413V729.421H135.038ZM135.038 762.166V794.228H103.413V762.166H135.038ZM135.038 794.91V826.29H103.413V794.91H135.038ZM135.038 828.337V859.717H103.413V828.337H135.038ZM136.962 828.337H168.587V859.717H136.962V828.337ZM169.275 828.337H201.587V859.717H169.275V828.337ZM202.275 828.337H234.587V859.717H202.275V828.337ZM235.275 828.337H267.587V859.717H235.275V828.337ZM268.275 828.337H299.9V859.717H268.275V828.337ZM301.963 828.337H333.588V859.717H301.963V828.337ZM334.275 828.337H366.588V859.717H334.275V828.337ZM367.275 828.337H399.588V859.717H367.275V828.337ZM400.275 828.337H432.588V859.717H400.275V828.337ZM433.275 828.337H464.9V859.717H433.275V828.337ZM466.963 828.337H498.588V859.717H466.963V828.337ZM499.275 828.337H531.588V859.717H499.275V828.337ZM532.275 828.337H564.588V859.717H532.275V828.337ZM565.275 828.337H597.588V859.717H565.275V828.337ZM598.275 828.337H629.9V859.717H598.275V828.337ZM631.963 828.337H663.588V859.717H631.963V828.337ZM664.275 828.337H696.588V859.717H664.275V828.337ZM697.275 828.337H729.588V859.717H697.275V828.337ZM730.275 828.337H762.588V859.717H730.275V828.337ZM763.275 828.337H794.9V859.717H763.275V828.337ZM796.963 828.337H828.588V859.717H796.963V828.337ZM829.275 828.337H861.588V859.717H829.275V828.337ZM862.275 828.337H894.588V859.717H862.275V828.337ZM895.275 828.337H927.588V859.717H895.275V828.337ZM928.275 828.337H959.9V859.717H928.275V828.337ZM961.963 828.337H993.588V859.717H961.963V828.337ZM994.275 828.337H1026.59V859.717H994.275V828.337ZM1027.28 828.337H1059.59V859.717H1027.28V828.337ZM1060.28 828.337H1092.59V859.717H1060.28V828.337ZM1093.28 828.337H1124.9V859.717H1093.28V828.337ZM1126.96 828.337H1158.59V859.717H1126.96V828.337ZM1159.28 828.337H1191.59V859.717H1159.28V828.337ZM1192.28 828.337H1224.59V859.717H1192.28V828.337ZM1225.28 828.337H1257.59V859.717H1225.28V828.337ZM1258.28 828.337H1289.9V859.717H1258.28V828.337ZM1291.96 828.337H1323.59V859.717H1291.96V828.337ZM1291.96 826.426V795.047H1323.59V826.426H1291.96ZM1291.96 794.364V762.302H1323.59V794.364H1291.96ZM1291.96 761.62V729.558H1323.59V761.62H1291.96ZM1291.96 728.876V696.813H1323.59V728.876H1291.96ZM1291.96 696.131V664.751H1323.59V696.131H1291.96ZM1291.96 662.705V631.325H1323.59V662.705H1291.96ZM1291.96 630.643V598.581H1323.59V630.643H1291.96ZM1291.96 597.898V565.836H1323.59V597.898H1291.96ZM1291.96 565.154V533.092H1323.59V565.154H1291.96ZM1291.96 532.41V501.03H1323.59V532.41H1291.96ZM1291.96 498.983V467.603H1323.59V498.983H1291.96ZM1291.96 466.921V434.859H1323.59V466.921H1291.96ZM1291.96 434.177V402.115H1323.59V434.177H1291.96ZM1291.96 401.432V369.37H1323.59V401.432H1291.96ZM1291.96 368.688V337.308H1323.59V368.688H1291.96ZM1291.96 335.262V303.882H1323.59V335.262H1291.96ZM1291.96 303.199V271.137H1323.59V303.199H1291.96ZM1291.96 270.455V238.393H1323.59V270.455H1291.96ZM1291.96 237.711V205.649H1323.59V237.711H1291.96ZM1291.96 204.966V173.586H1323.59V204.966H1291.96ZM1291.96 171.54V140.16H1323.59V171.54H1291.96ZM1291.96 139.478V107.416H1323.59V139.478H1291.96ZM1290.04 139.478H1258.41V107.416H1290.04V139.478ZM1257.72 139.478H1225.41V107.416H1257.72V139.478ZM1224.72 139.478H1192.41V107.416H1224.72V139.478ZM1191.72 139.478H1159.41V107.416H1191.72V139.478ZM1158.72 139.478H1127.1V107.416H1158.72V139.478ZM1125.04 139.478H1093.41V107.416H1125.04V139.478ZM1092.72 139.478H1060.41V107.416H1092.72V139.478ZM1059.72 139.478H1027.41V107.416H1059.72V139.478ZM1026.72 139.478H994.412V107.416H1026.72V139.478ZM993.725 139.478H962.1V107.416H993.725V139.478ZM960.037 139.478H928.412V107.416H960.037V139.478ZM927.725 139.478H895.412V107.416H927.725V139.478ZM894.725 139.478H862.412V107.416H894.725V139.478ZM861.725 139.478H829.412V107.416H861.725V139.478ZM828.725 139.478H797.1V107.416H828.725V139.478ZM795.037 139.478H763.412V107.416H795.037V139.478ZM762.725 139.478H730.412V107.416H762.725V139.478ZM729.725 139.478H697.412V107.416H729.725V139.478ZM696.725 139.478H664.412V107.416H696.725V139.478ZM663.725 139.478H632.1V107.416H663.725V139.478ZM630.037 139.478H598.412V107.416H630.037V139.478ZM597.725 139.478H565.412V107.416H597.725V139.478ZM564.725 139.478H532.412V107.416H564.725V139.478ZM531.725 139.478H499.412V107.416H531.725V139.478ZM498.725 139.478H467.1V107.416H498.725V139.478ZM465.037 139.478H433.412V107.416H465.037V139.478ZM432.725 139.478H400.412V107.416H432.725V139.478ZM399.725 139.478H367.412V107.416H399.725V139.478ZM366.725 139.478H334.412V107.416H366.725V139.478ZM333.725 139.478H302.1V107.416H333.725V139.478ZM300.037 139.478H268.413V107.416H300.037V139.478ZM267.725 139.478H235.413V107.416H267.725V139.478ZM234.725 139.478H202.413V107.416H234.725V139.478ZM201.725 139.478H169.413V107.416H201.725V139.478ZM168.725 139.478H137.1V107.416H168.725V139.478ZM135.038 139.478H103.413V107.416H135.038V139.478ZM102.725 139.478H70.4125V107.416H102.725V139.478ZM102.725 140.023V171.403H70.4125V140.023H102.725ZM102.725 173.45V204.83H70.4125V173.45H102.725ZM102.725 205.512V237.574H70.4125V205.512H102.725ZM102.725 238.256V270.319H70.4125V238.256H102.725ZM102.725 271.001V303.063H70.4125V271.001H102.725ZM102.725 303.745V335.125H70.4125V303.745H102.725ZM102.725 337.172V368.552H70.4125V337.172H102.725ZM102.725 369.234V401.296H70.4125V369.234H102.725ZM102.725 401.978V434.04H70.4125V401.978H102.725ZM102.725 434.722V466.785H70.4125V434.722H102.725ZM102.725 467.467V498.847H70.4125V467.467H102.725ZM102.725 500.893V532.273H70.4125V500.893H102.725ZM102.725 532.955V565.018H70.4125V532.955H102.725ZM102.725 565.7V597.762H70.4125V565.7H102.725ZM102.725 598.444V630.506H70.4125V598.444H102.725ZM102.725 631.188V662.568H70.4125V631.188H102.725ZM102.725 664.615V695.995H70.4125V664.615H102.725ZM102.725 696.677V728.739H70.4125V696.677H102.725ZM102.725 729.421V761.484H70.4125V729.421H102.725ZM102.725 762.166V794.228H70.4125V762.166H102.725ZM102.725 794.91V826.29H70.4125V794.91H102.725ZM102.725 828.337V859.717H70.4125V828.337H102.725ZM102.725 860.399V892.461H70.4125V860.399H102.725ZM103.275 860.399H134.9V892.461H103.275V860.399ZM136.962 860.399H168.587V892.461H136.962V860.399ZM169.275 860.399H201.587V892.461H169.275V860.399ZM202.275 860.399H234.587V892.461H202.275V860.399ZM235.275 860.399H267.587V892.461H235.275V860.399ZM268.275 860.399H299.9V892.461H268.275V860.399ZM301.963 860.399H333.588V892.461H301.963V860.399ZM334.275 860.399H366.588V892.461H334.275V860.399ZM367.275 860.399H399.588V892.461H367.275V860.399ZM400.275 860.399H432.588V892.461H400.275V860.399ZM433.275 860.399H464.9V892.461H433.275V860.399ZM466.963 860.399H498.588V892.461H466.963V860.399ZM499.275 860.399H531.588V892.461H499.275V860.399ZM532.275 860.399H564.588V892.461H532.275V860.399ZM565.275 860.399H597.588V892.461H565.275V860.399ZM598.275 860.399H629.9V892.461H598.275V860.399ZM631.963 860.399H663.588V892.461H631.963V860.399ZM664.275 860.399H696.588V892.461H664.275V860.399ZM697.275 860.399H729.588V892.461H697.275V860.399ZM730.275 860.399H762.588V892.461H730.275V860.399ZM763.275 860.399H794.9V892.461H763.275V860.399ZM796.963 860.399H828.588V892.461H796.963V860.399ZM829.275 860.399H861.588V892.461H829.275V860.399ZM862.275 860.399H894.588V892.461H862.275V860.399ZM895.275 860.399H927.588V892.461H895.275V860.399ZM928.275 860.399H959.9V892.461H928.275V860.399ZM961.963 860.399H993.588V892.461H961.963V860.399ZM994.275 860.399H1026.59V892.461H994.275V860.399ZM1027.28 860.399H1059.59V892.461H1027.28V860.399ZM1060.28 860.399H1092.59V892.461H1060.28V860.399ZM1093.28 860.399H1124.9V892.461H1093.28V860.399ZM1126.96 860.399H1158.59V892.461H1126.96V860.399ZM1159.28 860.399H1191.59V892.461H1159.28V860.399ZM1192.28 860.399H1224.59V892.461H1192.28V860.399ZM1225.28 860.399H1257.59V892.461H1225.28V860.399ZM1258.28 860.399H1289.9V892.461H1258.28V860.399ZM1291.96 860.399H1323.59V892.461H1291.96V860.399ZM1324.28 860.399H1356.59V892.461H1324.28V860.399ZM1324.28 859.853V828.473H1356.59V859.853H1324.28ZM1324.28 826.426V795.047H1356.59V826.426H1324.28ZM1324.28 794.364V762.302H1356.59V794.364H1324.28ZM1324.28 761.62V729.558H1356.59V761.62H1324.28ZM1324.28 728.876V696.813H1356.59V728.876H1324.28ZM1324.28 696.131V664.751H1356.59V696.131H1324.28ZM1324.28 662.705V631.325H1356.59V662.705H1324.28ZM1324.28 630.643V598.581H1356.59V630.643H1324.28ZM1324.28 597.898V565.836H1356.59V597.898H1324.28ZM1324.28 565.154V533.092H1356.59V565.154H1324.28ZM1324.28 532.41V501.03H1356.59V532.41H1324.28ZM1324.28 498.983V467.603H1356.59V498.983H1324.28ZM1324.28 466.921V434.859H1356.59V466.921H1324.28ZM1324.28 434.177V402.115H1356.59V434.177H1324.28ZM1324.28 401.432V369.37H1356.59V401.432H1324.28ZM1324.28 368.688V337.308H1356.59V368.688H1324.28ZM1324.28 335.262V303.882H1356.59V335.262H1324.28ZM1324.28 303.199V271.137H1356.59V303.199H1324.28ZM1324.28 270.455V238.393H1356.59V270.455H1324.28ZM1324.28 237.711V205.649H1356.59V237.711H1324.28ZM1324.28 204.966V173.586H1356.59V204.966H1324.28ZM1324.28 171.54V140.16H1356.59V171.54H1324.28ZM1324.28 139.478V107.416H1356.59V139.478H1324.28ZM1324.28 106.733V74.6712H1356.59V106.733H1324.28ZM1323.72 106.733H1292.1V74.6712H1323.72V106.733ZM1290.04 106.733H1258.41V74.6712H1290.04V106.733ZM1257.72 106.733H1225.41V74.6712H1257.72V106.733ZM1224.72 106.733H1192.41V74.6712H1224.72V106.733ZM1191.72 106.733H1159.41V74.6712H1191.72V106.733ZM1158.72 106.733H1127.1V74.6712H1158.72V106.733ZM1125.04 106.733H1093.41V74.6712H1125.04V106.733ZM1092.72 106.733H1060.41V74.6712H1092.72V106.733ZM1059.72 106.733H1027.41V74.6712H1059.72V106.733ZM1026.72 106.733H994.412V74.6712H1026.72V106.733ZM993.725 106.733H962.1V74.6712H993.725V106.733ZM960.037 106.733H928.412V74.6712H960.037V106.733ZM927.725 106.733H895.412V74.6712H927.725V106.733ZM894.725 106.733H862.412V74.6712H894.725V106.733ZM861.725 106.733H829.412V74.6712H861.725V106.733ZM828.725 106.733H797.1V74.6712H828.725V106.733ZM795.037 106.733H763.412V74.6712H795.037V106.733ZM762.725 106.733H730.412V74.6712H762.725V106.733ZM729.725 106.733H697.412V74.6712H729.725V106.733ZM696.725 106.733H664.412V74.6712H696.725V106.733ZM663.725 106.733H632.1V74.6712H663.725V106.733ZM630.037 106.733H598.412V74.6712H630.037V106.733ZM597.725 106.733H565.412V74.6712H597.725V106.733ZM564.725 106.733H532.412V74.6712H564.725V106.733ZM531.725 106.733H499.412V74.6712H531.725V106.733ZM498.725 106.733H467.1V74.6712H498.725V106.733ZM465.037 106.733H433.412V74.6712H465.037V106.733ZM432.725 106.733H400.412V74.6712H432.725V106.733ZM399.725 106.733H367.412V74.6712H399.725V106.733ZM366.725 106.733H334.412V74.6712H366.725V106.733ZM333.725 106.733H302.1V74.6712H333.725V106.733ZM300.037 106.733H268.413V74.6712H300.037V106.733ZM267.725 106.733H235.413V74.6712H267.725V106.733ZM234.725 106.733H202.413V74.6712H234.725V106.733ZM201.725 106.733H169.413V74.6712H201.725V106.733ZM168.725 106.733H137.1V74.6712H168.725V106.733ZM135.038 106.733H103.413V74.6712H135.038V106.733ZM102.725 106.733H70.4125V74.6712H102.725V106.733ZM69.725 106.733H37.4125V74.6712H69.725V106.733ZM69.725 107.279V139.341H37.4125V107.279H69.725ZM69.725 140.023V171.403H37.4125V140.023H69.725ZM69.725 173.45V204.83H37.4125V173.45H69.725ZM69.725 205.512V237.574H37.4125V205.512H69.725ZM69.725 238.256V270.319H37.4125V238.256H69.725ZM69.725 271.001V303.063H37.4125V271.001H69.725ZM69.725 303.745V335.125H37.4125V303.745H69.725ZM69.725 337.172V368.552H37.4125V337.172H69.725ZM69.725 369.234V401.296H37.4125V369.234H69.725ZM69.725 401.978V434.04H37.4125V401.978H69.725ZM69.725 434.722V466.785H37.4125V434.722H69.725ZM69.725 467.467V498.847H37.4125V467.467H69.725ZM69.725 500.893V532.273H37.4125V500.893H69.725ZM69.725 532.955V565.018H37.4125V532.955H69.725ZM69.725 565.7V597.762H37.4125V565.7H69.725ZM69.725 598.444V630.506H37.4125V598.444H69.725ZM69.725 631.188V662.568H37.4125V631.188H69.725ZM69.725 664.615V695.995H37.4125V664.615H69.725ZM69.725 696.677V728.739H37.4125V696.677H69.725ZM69.725 729.421V761.484H37.4125V729.421H69.725ZM69.725 762.166V794.228H37.4125V762.166H69.725ZM69.725 794.91V826.29H37.4125V794.91H69.725ZM69.725 828.337V859.717H37.4125V828.337H69.725ZM69.725 860.399V892.461H37.4125V860.399H69.725ZM69.725 893.143V925.205H37.4125V893.143H69.725ZM70.275 893.143H102.587V925.205H70.275V893.143ZM103.275 893.143H134.9V925.205H103.275V893.143ZM136.962 893.143H168.587V925.205H136.962V893.143ZM169.275 893.143H201.587V925.205H169.275V893.143ZM202.275 893.143H234.587V925.205H202.275V893.143ZM235.275 893.143H267.587V925.205H235.275V893.143ZM268.275 893.143H299.9V925.205H268.275V893.143ZM301.963 893.143H333.588V925.205H301.963V893.143ZM334.275 893.143H366.588V925.205H334.275V893.143ZM367.275 893.143H399.588V925.205H367.275V893.143ZM400.275 893.143H432.588V925.205H400.275V893.143ZM433.275 893.143H464.9V925.205H433.275V893.143ZM466.963 893.143H498.588V925.205H466.963V893.143ZM499.275 893.143H531.588V925.205H499.275V893.143ZM532.275 893.143H564.588V925.205H532.275V893.143ZM565.275 893.143H597.588V925.205H565.275V893.143ZM598.275 893.143H629.9V925.205H598.275V893.143ZM631.963 893.143H663.588V925.205H631.963V893.143ZM664.275 893.143H696.588V925.205H664.275V893.143ZM697.275 893.143H729.588V925.205H697.275V893.143ZM730.275 893.143H762.588V925.205H730.275V893.143ZM763.275 893.143H794.9V925.205H763.275V893.143ZM796.963 893.143H828.588V925.205H796.963V893.143ZM829.275 893.143H861.588V925.205H829.275V893.143ZM862.275 893.143H894.588V925.205H862.275V893.143ZM895.275 893.143H927.588V925.205H895.275V893.143ZM928.275 893.143H959.9V925.205H928.275V893.143ZM961.963 893.143H993.588V925.205H961.963V893.143ZM994.275 893.143H1026.59V925.205H994.275V893.143ZM1027.28 893.143H1059.59V925.205H1027.28V893.143ZM1060.28 893.143H1092.59V925.205H1060.28V893.143ZM1093.28 893.143H1124.9V925.205H1093.28V893.143ZM1126.96 893.143H1158.59V925.205H1126.96V893.143ZM1159.28 893.143H1191.59V925.205H1159.28V893.143ZM1192.28 893.143H1224.59V925.205H1192.28V893.143ZM1225.28 893.143H1257.59V925.205H1225.28V893.143ZM1258.28 893.143H1289.9V925.205H1258.28V893.143ZM1291.96 893.143H1323.59V925.205H1291.96V893.143ZM1324.28 893.143H1356.59V925.205H1324.28V893.143ZM1357.27 893.143H1389.59V925.205H1357.27V893.143ZM1357.27 892.597V860.535H1389.59V892.597H1357.27ZM1357.27 859.853V828.473H1389.59V859.853H1357.27ZM1357.27 826.426V795.047H1389.59V826.426H1357.27ZM1357.27 794.364V762.302H1389.59V794.364H1357.27ZM1357.27 761.62V729.558H1389.59V761.62H1357.27ZM1357.27 728.876V696.813H1389.59V728.876H1357.27ZM1357.27 696.131V664.751H1389.59V696.131H1357.27ZM1357.27 662.705V631.325H1389.59V662.705H1357.27ZM1357.27 630.643V598.581H1389.59V630.643H1357.27ZM1357.27 597.898V565.836H1389.59V597.898H1357.27ZM1357.27 565.154V533.092H1389.59V565.154H1357.27ZM1357.27 532.41V501.03H1389.59V532.41H1357.27ZM1357.27 498.983V467.603H1389.59V498.983H1357.27ZM1357.27 466.921V434.859H1389.59V466.921H1357.27ZM1357.27 434.177V402.115H1389.59V434.177H1357.27ZM1357.27 401.432V369.37H1389.59V401.432H1357.27ZM1357.27 368.688V337.308H1389.59V368.688H1357.27ZM1357.27 335.262V303.882H1389.59V335.262H1357.27ZM1357.27 303.199V271.137H1389.59V303.199H1357.27ZM1357.27 270.455V238.393H1389.59V270.455H1357.27ZM1357.27 237.711V205.649H1389.59V237.711H1357.27ZM1357.27 204.966V173.586H1389.59V204.966H1357.27ZM1357.27 171.54V140.16H1389.59V171.54H1357.27ZM1357.27 139.478V107.416H1389.59V139.478H1357.27ZM1357.27 106.733V74.6712H1389.59V106.733H1357.27ZM1357.27 73.9891V41.9269H1389.59V73.9891H1357.27ZM1356.73 73.9891H1324.41V41.9269H1356.73V73.9891ZM1323.72 73.9891H1292.1V41.9269H1323.72V73.9891ZM1290.04 73.9891H1258.41V41.9269H1290.04V73.9891ZM1257.72 73.9891H1225.41V41.9269H1257.72V73.9891ZM1224.72 73.9891H1192.41V41.9269H1224.72V73.9891ZM1191.72 73.9891H1159.41V41.9269H1191.72V73.9891ZM1158.72 73.9891H1127.1V41.9269H1158.72V73.9891ZM1125.04 73.9891H1093.41V41.9269H1125.04V73.9891ZM1092.72 73.9891H1060.41V41.9269H1092.72V73.9891ZM1059.72 73.9891H1027.41V41.9269H1059.72V73.9891ZM1026.72 73.9891H994.412V41.9269H1026.72V73.9891ZM993.725 73.9891H962.1V41.9269H993.725V73.9891ZM960.037 73.9891H928.412V41.9269H960.037V73.9891ZM927.725 73.9891H895.412V41.9269H927.725V73.9891ZM894.725 73.9891H862.412V41.9269H894.725V73.9891ZM861.725 73.9891H829.412V41.9269H861.725V73.9891ZM828.725 73.9891H797.1V41.9269H828.725V73.9891ZM795.037 73.9891H763.412V41.9269H795.037V73.9891ZM762.725 73.9891H730.412V41.9269H762.725V73.9891ZM729.725 73.9891H697.412V41.9269H729.725V73.9891ZM696.725 73.9891H664.412V41.9269H696.725V73.9891ZM663.725 73.9891H632.1V41.9269H663.725V73.9891ZM630.037 73.9891H598.412V41.9269H630.037V73.9891ZM597.725 73.9891H565.412V41.9269H597.725V73.9891ZM564.725 73.9891H532.412V41.9269H564.725V73.9891ZM531.725 73.9891H499.412V41.9269H531.725V73.9891ZM498.725 73.9891H467.1V41.9269H498.725V73.9891ZM465.037 73.9891H433.412V41.9269H465.037V73.9891ZM432.725 73.9891H400.412V41.9269H432.725V73.9891ZM399.725 73.9891H367.412V41.9269H399.725V73.9891ZM366.725 73.9891H334.412V41.9269H366.725V73.9891ZM333.725 73.9891H302.1V41.9269H333.725V73.9891ZM300.037 73.9891H268.413V41.9269H300.037V73.9891ZM267.725 73.9891H235.413V41.9269H267.725V73.9891ZM234.725 73.9891H202.413V41.9269H234.725V73.9891ZM201.725 73.9891H169.413V41.9269H201.725V73.9891ZM168.725 73.9891H137.1V41.9269H168.725V73.9891ZM135.038 73.9891H103.413V41.9269H135.038V73.9891ZM102.725 73.9891H70.4125V41.9269H102.725V73.9891ZM69.725 73.9891H37.4125V41.9269H69.725V73.9891ZM36.725 73.9891H4.4125V41.9269H36.725V73.9891ZM36.725 74.5348V106.597H4.4125V74.5348H36.725ZM36.725 107.279V139.341H4.4125V107.279H36.725ZM36.725 140.023V171.403H4.4125V140.023H36.725ZM36.725 173.45V204.83H4.4125V173.45H36.725ZM36.725 205.512V237.574H4.4125V205.512H36.725ZM36.725 238.256V270.319H4.4125V238.256H36.725ZM36.725 271.001V303.063H4.4125V271.001H36.725ZM36.725 303.745V335.125H4.4125V303.745H36.725ZM36.725 337.172V368.552H4.4125V337.172H36.725ZM36.725 369.234V401.296H4.4125V369.234H36.725ZM36.725 401.978V434.04H4.4125V401.978H36.725ZM36.725 434.722V466.785H4.4125V434.722H36.725ZM36.725 467.467V498.847H4.4125V467.467H36.725ZM36.725 500.893V532.273H4.4125V500.893H36.725ZM36.725 532.955V565.018H4.4125V532.955H36.725ZM36.725 565.7V597.762H4.4125V565.7H36.725ZM36.725 598.444V630.506H4.4125V598.444H36.725ZM36.725 631.188V662.568H4.4125V631.188H36.725ZM36.725 664.615V695.995H4.4125V664.615H36.725ZM36.725 696.677V728.739H4.4125V696.677H36.725ZM36.725 729.421V761.484H4.4125V729.421H36.725ZM36.725 762.166V794.228H4.4125V762.166H36.725ZM36.725 794.91V826.29H4.4125V794.91H36.725ZM36.725 828.337V859.717H4.4125V828.337H36.725ZM36.725 860.399V892.461H4.4125V860.399H36.725ZM36.725 893.143V925.205H4.4125V893.143H36.725ZM36.725 925.887V957.95H4.4125V925.887H36.725ZM37.275 925.887H69.5875V957.95H37.275V925.887ZM70.275 925.887H102.587V957.95H70.275V925.887ZM103.275 925.887H134.9V957.95H103.275V925.887ZM136.962 925.887H168.587V957.95H136.962V925.887ZM169.275 925.887H201.587V957.95H169.275V925.887ZM202.275 925.887H234.587V957.95H202.275V925.887ZM235.275 925.887H267.587V957.95H235.275V925.887ZM268.275 925.887H299.9V957.95H268.275V925.887ZM301.963 925.887H333.588V957.95H301.963V925.887ZM334.275 925.887H366.588V957.95H334.275V925.887ZM367.275 925.887H399.588V957.95H367.275V925.887ZM400.275 925.887H432.588V957.95H400.275V925.887ZM433.275 925.887H464.9V957.95H433.275V925.887ZM466.963 925.887H498.588V957.95H466.963V925.887ZM499.275 925.887H531.588V957.95H499.275V925.887ZM532.275 925.887H564.588V957.95H532.275V925.887ZM565.275 925.887H597.588V957.95H565.275V925.887ZM598.275 925.887H629.9V957.95H598.275V925.887ZM631.963 925.887H663.588V957.95H631.963V925.887ZM664.275 925.887H696.588V957.95H664.275V925.887ZM697.275 925.887H729.588V957.95H697.275V925.887ZM730.275 925.887H762.588V957.95H730.275V925.887ZM763.275 925.887H794.9V957.95H763.275V925.887ZM796.963 925.887H828.588V957.95H796.963V925.887ZM829.275 925.887H861.588V957.95H829.275V925.887ZM862.275 925.887H894.588V957.95H862.275V925.887ZM895.275 925.887H927.588V957.95H895.275V925.887ZM928.275 925.887H959.9V957.95H928.275V925.887ZM961.963 925.887H993.588V957.95H961.963V925.887ZM994.275 925.887H1026.59V957.95H994.275V925.887ZM1027.28 925.887H1059.59V957.95H1027.28V925.887ZM1060.28 925.887H1092.59V957.95H1060.28V925.887ZM1093.28 925.887H1124.9V957.95H1093.28V925.887ZM1126.96 925.887H1158.59V957.95H1126.96V925.887ZM1159.28 925.887H1191.59V957.95H1159.28V925.887ZM1192.28 925.887H1224.59V957.95H1192.28V925.887ZM1225.28 925.887H1257.59V957.95H1225.28V925.887ZM1258.28 925.887H1289.9V957.95H1258.28V925.887ZM1291.96 925.887H1323.59V957.95H1291.96V925.887ZM1324.28 925.887H1356.59V957.95H1324.28V925.887ZM1357.27 925.887H1389.59V957.95H1357.27V925.887ZM1390.27 925.887H1422.59V957.95H1390.27V925.887ZM1390.27 925.342V893.279H1422.59V925.342H1390.27ZM1390.27 892.597V860.535H1422.59V892.597H1390.27ZM1390.27 859.853V828.473H1422.59V859.853H1390.27ZM1390.27 826.426V795.047H1422.59V826.426H1390.27ZM1390.27 794.364V762.302H1422.59V794.364H1390.27ZM1390.27 761.62V729.558H1422.59V761.62H1390.27ZM1390.27 728.876V696.813H1422.59V728.876H1390.27ZM1390.27 696.131V664.751H1422.59V696.131H1390.27ZM1390.27 662.705V631.325H1422.59V662.705H1390.27ZM1390.27 630.643V598.581H1422.59V630.643H1390.27ZM1390.27 597.898V565.836H1422.59V597.898H1390.27ZM1390.27 565.154V533.092H1422.59V565.154H1390.27ZM1390.27 532.41V501.03H1422.59V532.41H1390.27ZM1390.27 498.983V467.603H1422.59V498.983H1390.27ZM1390.27 466.921V434.859H1422.59V466.921H1390.27ZM1390.27 434.177V402.115H1422.59V434.177H1390.27ZM1390.27 401.432V369.37H1422.59V401.432H1390.27ZM1390.27 368.688V337.308H1422.59V368.688H1390.27ZM1390.27 335.262V303.882H1422.59V335.262H1390.27ZM1390.27 303.199V271.137H1422.59V303.199H1390.27ZM1390.27 270.455V238.393H1422.59V270.455H1390.27ZM1390.27 237.711V205.649H1422.59V237.711H1390.27ZM1390.27 204.966V173.586H1422.59V204.966H1390.27ZM1390.27 171.54V140.16H1422.59V171.54H1390.27ZM1390.27 139.478V107.416H1422.59V139.478H1390.27ZM1390.27 106.733V74.6712H1422.59V106.733H1390.27ZM1390.27 73.9891V41.9269H1422.59V73.9891H1390.27ZM1389.73 9.72831V41.1083H1357.41V9.72831H1389.73ZM1356.73 9.72831V41.1083H1324.41V9.72831H1356.73ZM1323.72 9.72831V41.1083H1292.1V9.72831H1323.72ZM1290.04 9.72831V41.1083H1258.41V9.72831H1290.04ZM1257.72 9.72831V41.1083H1225.41V9.72831H1257.72ZM1224.72 9.72831V41.1083H1192.41V9.72831H1224.72ZM1191.72 9.72831V41.1083H1159.41V9.72831H1191.72ZM1158.72 9.72831V41.1083H1127.1V9.72831H1158.72ZM1125.04 9.72831V41.1083H1093.41V9.72831H1125.04ZM1092.72 9.72831V41.1083H1060.41V9.72831H1092.72ZM1059.72 9.72831V41.1083H1027.41V9.72831H1059.72ZM1026.72 9.72831V41.1083H994.412V9.72831H1026.72ZM993.725 9.72831V41.1083H962.1V9.72831H993.725ZM960.037 9.72831V41.1083H928.412V9.72831H960.037ZM927.725 9.72831V41.1083H895.412V9.72831H927.725ZM894.725 9.72831V41.1083H862.412V9.72831H894.725ZM861.725 9.72831V41.1083H829.412V9.72831H861.725ZM828.725 9.72831V41.1083H797.1V9.72831H828.725ZM795.037 9.72831V41.1083H763.412V9.72831H795.037ZM762.725 9.72831V41.1083H730.412V9.72831H762.725ZM729.725 9.72831V41.1083H697.412V9.72831H729.725ZM696.725 9.72831V41.1083H664.412V9.72831H696.725ZM663.725 9.72831V41.1083H632.1V9.72831H663.725ZM630.037 9.72831V41.1083H598.412V9.72831H630.037ZM597.725 9.72831V41.1083H565.412V9.72831H597.725ZM564.725 9.72831V41.1083H532.412V9.72831H564.725ZM531.725 9.72831V41.1083H499.412V9.72831H531.725ZM498.725 9.72831V41.1083H467.1V9.72831H498.725ZM465.037 9.72831V41.1083H433.412V9.72831H465.037ZM432.725 9.72831V41.1083H400.412V9.72831H432.725ZM399.725 9.72831V41.1083H367.412V9.72831H399.725ZM366.725 9.72831V41.1083H334.412V9.72831H366.725ZM333.725 9.72831V41.1083H302.1V9.72831H333.725ZM300.037 9.72831V41.1083H268.413V9.72831H300.037ZM267.725 9.72831V41.1083H235.413V9.72831H267.725ZM234.725 9.72831V41.1083H202.413V9.72831H234.725ZM201.725 9.72831V41.1083H169.413V9.72831H201.725ZM168.725 9.72831V41.1083H137.1V9.72831H168.725ZM135.038 9.72831V41.1083H103.413V9.72831H135.038ZM102.725 9.72831V41.1083H70.4125V9.72831H102.725ZM69.725 9.72831V41.1083H37.4125V9.72831H69.725ZM36.725 9.72831V41.1083H4.4125V9.72831H36.725ZM-28.0375 9.72831H3.5875V41.1083H-28.0375V9.72831ZM-28.0375 41.7905H3.5875V73.8526H-28.0375V41.7905ZM-28.0375 74.5348H3.5875V106.597H-28.0375V74.5348ZM-28.0375 107.279H3.5875V139.341H-28.0375V107.279ZM-28.0375 140.023H3.5875V171.403H-28.0375V140.023ZM-28.0375 173.45H3.5875V204.83H-28.0375V173.45ZM-28.0375 205.512H3.5875V237.574H-28.0375V205.512ZM-28.0375 238.256H3.5875V270.319H-28.0375V238.256ZM-28.0375 271.001H3.5875V303.063H-28.0375V271.001ZM-28.0375 303.745H3.5875V335.125H-28.0375V303.745ZM-28.0375 337.172H3.5875V368.552H-28.0375V337.172ZM-28.0375 369.234H3.5875V401.296H-28.0375V369.234ZM-28.0375 401.978H3.5875V434.04H-28.0375V401.978ZM-28.0375 434.722H3.5875V466.785H-28.0375V434.722ZM-28.0375 467.467H3.5875V498.847H-28.0375V467.467ZM-28.0375 500.893H3.5875V532.273H-28.0375V500.893ZM-28.0375 532.955H3.5875V565.018H-28.0375V532.955ZM-28.0375 565.7H3.5875V597.762H-28.0375V565.7ZM-28.0375 598.444H3.5875V630.506H-28.0375V598.444ZM-28.0375 631.188H3.5875V662.568H-28.0375V631.188ZM-28.0375 664.615H3.5875V695.995H-28.0375V664.615ZM-28.0375 696.677H3.5875V728.739H-28.0375V696.677ZM-28.0375 729.421H3.5875V761.484H-28.0375V729.421ZM-28.0375 762.166H3.5875V794.228H-28.0375V762.166ZM-28.0375 794.91H3.5875V826.29H-28.0375V794.91ZM-28.0375 828.337H3.5875V859.717H-28.0375V828.337ZM-28.0375 860.399H3.5875V892.461H-28.0375V860.399ZM-28.0375 893.143H3.5875V925.205H-28.0375V893.143ZM-28.0375 925.887H3.5875V957.95H-28.0375V925.887ZM-28.0375 990.148V958.768H3.5875V990.148H-28.0375ZM4.275 990.148V958.768H36.5875V990.148H4.275ZM37.275 990.148V958.768H69.5875V990.148H37.275ZM70.275 990.148V958.768H102.587V990.148H70.275ZM103.275 990.148V958.768H134.9V990.148H103.275ZM136.962 990.148V958.768H168.587V990.148H136.962ZM169.275 990.148V958.768H201.587V990.148H169.275ZM202.275 990.148V958.768H234.587V990.148H202.275ZM235.275 990.148V958.768H267.587V990.148H235.275ZM268.275 990.148V958.768H299.9V990.148H268.275ZM301.963 990.148V958.768H333.588V990.148H301.963ZM334.275 990.148V958.768H366.588V990.148H334.275ZM367.275 990.148V958.768H399.588V990.148H367.275ZM400.275 990.148V958.768H432.588V990.148H400.275ZM433.275 990.148V958.768H464.9V990.148H433.275ZM466.963 990.148V958.768H498.588V990.148H466.963ZM499.275 990.148V958.768H531.588V990.148H499.275ZM532.275 990.148V958.768H564.588V990.148H532.275ZM565.275 990.148V958.768H597.588V990.148H565.275ZM598.275 990.148V958.768H629.9V990.148H598.275ZM631.963 990.148V958.768H663.588V990.148H631.963ZM664.275 990.148V958.768H696.588V990.148H664.275ZM697.275 990.148V958.768H729.588V990.148H697.275ZM730.275 990.148V958.768H762.588V990.148H730.275ZM763.275 990.148V958.768H794.9V990.148H763.275ZM796.963 990.148V958.768H828.588V990.148H796.963ZM829.275 990.148V958.768H861.588V990.148H829.275ZM862.275 990.148V958.768H894.588V990.148H862.275ZM895.275 990.148V958.768H927.588V990.148H895.275ZM928.275 990.148V958.768H959.9V990.148H928.275ZM961.963 990.148V958.768H993.588V990.148H961.963ZM994.275 990.148V958.768H1026.59V990.148H994.275ZM1027.28 990.148V958.768H1059.59V990.148H1027.28ZM1060.28 990.148V958.768H1092.59V990.148H1060.28ZM1093.28 990.148V958.768H1124.9V990.148H1093.28ZM1126.96 990.148V958.768H1158.59V990.148H1126.96ZM1159.28 990.148V958.768H1191.59V990.148H1159.28ZM1192.28 990.148V958.768H1224.59V990.148H1192.28ZM1225.28 990.148V958.768H1257.59V990.148H1225.28ZM1258.28 990.148V958.768H1289.9V990.148H1258.28ZM1291.96 990.148V958.768H1323.59V990.148H1291.96ZM1324.28 990.148V958.768H1356.59V990.148H1324.28ZM1357.27 990.148V958.768H1389.59V990.148H1357.27ZM1390.27 990.148V958.768H1422.59V990.148H1390.27ZM1455.04 990.148H1423.41V958.768H1455.04V990.148ZM1455.04 958.086H1423.41V926.024H1455.04V958.086ZM1455.04 925.342H1423.41V893.279H1455.04V925.342ZM1455.04 892.597H1423.41V860.535H1455.04V892.597ZM1455.04 859.853H1423.41V828.473H1455.04V859.853ZM1455.04 826.426H1423.41V795.047H1455.04V826.426ZM1455.04 794.364H1423.41V762.302H1455.04V794.364ZM1455.04 761.62H1423.41V729.558H1455.04V761.62ZM1455.04 728.876H1423.41V696.813H1455.04V728.876ZM1455.04 696.131H1423.41V664.751H1455.04V696.131ZM1455.04 662.705H1423.41V631.325H1455.04V662.705ZM1455.04 630.643H1423.41V598.581H1455.04V630.643ZM1455.04 597.898H1423.41V565.836H1455.04V597.898ZM1455.04 565.154H1423.41V533.092H1455.04V565.154ZM1455.04 532.41H1423.41V501.03H1455.04V532.41ZM1455.04 498.983H1423.41V467.603H1455.04V498.983ZM1455.04 466.921H1423.41V434.859H1455.04V466.921ZM1455.04 434.177H1423.41V402.115H1455.04V434.177ZM1455.04 401.432H1423.41V369.37H1455.04V401.432ZM1455.04 368.688H1423.41V337.308H1455.04V368.688ZM1455.04 335.262H1423.41V303.882H1455.04V335.262ZM1455.04 303.199H1423.41V271.137H1455.04V303.199ZM1455.04 270.455H1423.41V238.393H1455.04V270.455ZM1455.04 237.711H1423.41V205.649H1455.04V237.711ZM1455.04 204.966H1423.41V173.586H1455.04V204.966ZM1455.04 171.54H1423.41V140.16H1455.04V171.54ZM1455.04 139.478H1423.41V107.416H1455.04V139.478ZM1455.04 106.733H1423.41V74.6712H1455.04V106.733ZM1455.04 73.9891H1423.41V41.9269H1455.04V73.9891ZM1455.04 41.2447H1423.41V9.86474H1455.04V41.2447Z" fill="#682014" fill-opacity="0.1"/>
</svg>
