<svg width="108" height="40" viewBox="0 0 108 40" fill="none" xmlns="http://www.w3.org/2000/svg">
<g clip-path="url(#clip0_6115_867)">
<g clip-path="url(#clip1_6115_867)">
<path d="M44.3496 8.60614H57.0438V14.2794H47.4592V27.6194H41.0186V11.8735C41.0186 9.73117 42.2172 8.60385 44.3519 8.60385L44.3496 8.60614Z" fill="#FF7256"/>
<path d="M62.2859 21.9461H67.6033V14.2794H62.9594V8.60614H70.2608C72.3202 8.60614 73.5189 9.65785 73.5189 11.7636V21.9461H78.8728V27.6194H62.2859V21.9461ZM70.1124 0.488049C72.3956 0.488049 73.9686 1.53976 73.9686 3.71879C73.9686 5.89782 72.3956 6.94953 70.1124 6.94953C67.8293 6.94953 66.3681 5.93448 66.3681 3.71879C66.3681 1.5031 67.8293 0.488049 70.1124 0.488049Z" fill="#FF7256"/>
<path d="M85.0509 0H91.4528V12.2493C92.5007 10.2582 94.4848 8.22808 98.6423 8.22808C104.784 8.22808 107.366 12.7374 107.366 18.0738C107.366 23.4103 104.782 27.9952 98.6423 27.9952C94.7108 27.9952 92.6149 26.153 91.4528 23.9739V27.6194H85.0509V0ZM96.172 22.3219C99.3181 22.3219 100.964 21.0067 100.964 18.0761C100.964 15.1455 99.3159 13.9059 96.172 13.9059C93.0281 13.9059 91.4916 15.1845 91.4916 18.0761C91.4916 20.9677 93.0647 22.3219 96.172 22.3219Z" fill="#FF7256"/>
<path d="M15.9613 27.0466C15.0617 27.0466 14.669 27.207 13.9772 28.0456C12.9772 29.2577 10.2968 35.7444 7.0274 32.6374C4.69633 30.4217 7.879 28.0089 9.24202 26.9985C11.0868 25.6305 11.564 24.4826 12.1873 23.6279C12.7535 22.8535 14.0685 21.08 15.9613 21.0456H15.9658C17.8585 21.08 19.1736 22.8535 19.7398 23.6279C20.3631 24.4849 20.8403 25.6305 22.6851 26.9985C24.0481 28.0089 27.2307 30.4217 24.8997 32.6374C21.6325 35.7444 18.9521 29.2577 17.9499 28.0456C17.2581 27.207 16.8654 27.0466 15.9658 27.0466" fill="#FF7256"/>
<path d="M6.40182 17.7026C6.40182 16.7999 6.242 16.4058 5.40638 15.7115C4.19861 14.7079 -2.26491 12.0179 0.831002 8.73675C3.03878 6.39733 5.44291 9.59141 6.44977 10.9593C7.81279 12.8107 8.95664 13.2896 9.80824 13.9151C10.5799 14.4833 12.3471 15.8031 12.3813 17.7026V17.7072C12.3471 19.6067 10.5799 20.9265 9.80824 21.4947C8.95435 22.1203 7.81279 22.5991 6.44977 24.4505C5.44291 25.8184 3.03878 29.0125 0.831002 26.6731C-2.26491 23.3942 4.19861 20.7042 5.40638 19.6984C6.242 19.0041 6.40182 18.61 6.40182 17.7072" fill="#FF7256"/>
<path d="M25.0413 18.1723C25.0413 19.0751 25.2011 19.4692 26.0367 20.1635C27.2445 21.1671 33.708 23.8571 30.6121 27.1382C28.4043 29.4776 26.0002 26.2836 24.9933 24.9157C23.6303 23.0643 22.4865 22.5854 21.6348 21.9599C20.8632 21.3916 19.096 20.0718 19.0618 18.1723V18.1678C19.096 16.2683 20.8632 14.9485 21.6348 14.3802C22.4887 13.7547 23.6303 13.2758 24.9933 11.4245C26.0002 10.0565 28.4043 6.86246 30.6121 9.20188C33.708 12.4807 27.2445 15.1707 26.0367 16.1766C25.2011 16.8709 25.0413 17.265 25.0413 18.1678" fill="#FF7256"/>
<path d="M15.7352 8.76883C16.6348 8.76883 17.0275 8.60844 17.7193 7.76982C18.7193 6.55772 21.3997 0.0710328 24.6691 3.17804C27.0002 5.39374 23.8175 7.80648 22.4545 8.81695C20.6097 10.1849 20.1325 11.3328 19.5092 12.1875C18.943 12.9619 17.6279 14.7354 15.7352 14.7698H15.7307C13.838 14.7354 12.5229 12.9619 11.9567 12.1875C11.3334 11.3305 10.8562 10.1849 9.01143 8.81695C7.64841 7.80648 4.46574 5.39374 6.7968 3.17804C10.064 0.0710328 12.7443 6.55772 13.7466 7.76982C14.4384 8.60844 14.8311 8.76883 15.7307 8.76883" fill="#FF7256"/>
</g>
</g>
<defs>
<clipPath id="clip0_6115_867">
<rect width="107.368" height="40" fill="white"/>
</clipPath>
<clipPath id="clip1_6115_867">
<rect width="107.368" height="33.4737" fill="white"/>
</clipPath>
</defs>
</svg>
